<?xml version="1.0" encoding="UTF-8" standalone="no"?>
<!DOCTYPE svg PUBLIC "-//W3C//DTD SVG 1.1//EN" "http://www.w3.org/Graphics/SVG/1.1/DTD/svg11.dtd">
<svg width="100%" height="100%" viewBox="0 0 1280 1280" version="1.1" xmlns="http://www.w3.org/2000/svg" xmlns:xlink="http://www.w3.org/1999/xlink" xml:space="preserve" xmlns:serif="http://www.serif.com/" style="fill-rule:evenodd;clip-rule:evenodd;stroke-linejoin:round;stroke-miterlimit:1.41421;">
    <g transform="matrix(1.06383,0,0,0.866667,-44.4681,313.453)">
        <rect x="117" y="421" width="141" height="450" style="fill:rgb(42,161,183);"/>
    </g>
    <g transform="matrix(1.06383,0,0,0.933333,135.542,255.387)">
        <rect x="117" y="421" width="141" height="450" style="fill:rgb(124,160,88);"/>
    </g>
    <g transform="matrix(1.06383,0,0,1.06667,315.551,139.253)">
        <rect x="117" y="421" width="141" height="450" style="fill:rgb(250,177,12);"/>
    </g>
    <g transform="matrix(1.06383,0,0,1.33333,565.513,-93.0133)">
        <rect x="117" y="421" width="141" height="450" style="fill:rgb(42,161,183);"/>
    </g>
    <g transform="matrix(1.06383,0,0,1.73333,745.522,-441.413)">
        <rect x="117" y="421" width="141" height="450" style="fill:rgb(124,160,88);"/>
    </g>
    <g transform="matrix(1.06383,0,0,1.8,925.532,-499.48)">
        <rect x="117" y="421" width="141" height="450" style="fill:rgb(250,177,12);"/>
    </g>
    <g transform="matrix(1,0,0,1,-8.25985,66.5313)">
        <text x="123.793px" y="1048.6px" style="font-family:'Montserrat-Medium', 'Montserrat';font-weight:500;font-size:36px;">Amm<tspan x="226.357px " y="1048.6px ">o</tspan>unt n<tspan x="347.317px " y="1048.6px ">e</tspan>eded t<tspan x="486.457px " y="1048.6px ">o</tspan> be</text>
        <text x="124.945px" y="1084.6px" style="font-family:'Montserrat-Bold', 'Montserrat';font-weight:700;font-size:36px;">ﬁnan<tspan x="224.773px " y="1084.6px ">c</tspan>ially c<tspan x="353.509px " y="1084.6px ">o</tspan>mf<tspan x="428.533px 452.113px 468.169px " y="1084.6px 1084.6px 1084.6px ">ort</tspan>able</text>
    </g>
    <g transform="matrix(1,0,0,1,601.076,66.5313)">
        <text x="123.793px" y="1048.6px" style="font-family:'Montserrat-Medium', 'Montserrat';font-weight:500;font-size:36px;">Amm<tspan x="226.357px " y="1048.6px ">o</tspan>unt n<tspan x="347.317px " y="1048.6px ">e</tspan>eded t<tspan x="486.457px " y="1048.6px ">o</tspan> be</text>
        <text x="268.927px" y="1084.6px" style="font-family:'Montserrat-Bold', 'Montserrat';font-weight:700;font-size:36px;">w<tspan x="302.119px 324.295px 346.507px 358.747px 374.407px 398.923px " y="1084.6px 1084.6px 1084.6px 1084.6px 1084.6px 1084.6px ">ealthy</tspan></text>
    </g>
    <g transform="matrix(1.61291,0,0,1.61291,-18.3874,-443.558)">
        <g id="Footer">
            <g>
                <g transform="matrix(0.304791,0,0,0.304791,21.8059,753.327)">
                    <g transform="matrix(0.784717,0,0,0.793106,-64.1849,-549.287)">
                        <path d="M116.054,1919.86L205.862,1919.86L205.862,1831C175.913,1860.76 146.079,1890.14 116.054,1919.86Z" style="fill:rgb(42,161,183);"/>
                    </g>
                    <g transform="matrix(0.774384,0,0,0.781381,-62.8377,-529.87)">
                        <path d="M115.862,1833.63L115.862,1921L159.944,1877.43L115.862,1833.63Z" style="fill:rgb(243,80,5);"/>
                    </g>
                </g>
                <g transform="matrix(1,0,0,1,-69.3695,114.318)">
                    <text x="131.565px" y="935.442px" style="font-family:'Montserrat-Medium', 'Montserrat';font-weight:500;font-size:30px;">MAKED<tspan x="248.325px 269.235px 285.795px " y="935.442px 935.442px 935.442px ">ATA</tspan>SHINE<tspan x="404.805px 411.015px 432.255px " y="935.442px 935.442px 935.442px ">.CO</tspan>M</text>
                </g>
            </g>
        </g>
    </g>
    <g transform="matrix(1.6899,0,0,1.6899,1356.67,-285.776)">
        <text x="-237.9px" y="905.487px" style="font-family:'Montserrat-Bold', 'Montserrat';font-weight:700;font-size:17.061px;">Sour<tspan x="-196.918px -186.954px " y="905.487px 905.487px ">ce</tspan>:  Bloomber<tspan x="-73.888px " y="905.487px ">g</tspan></text>
    </g>
    <g transform="matrix(1,0,0,1,94.0191,293.9)">
        <text x="-5.835px" y="378.66px" style="font-family:'Montserrat-Bold', 'Montserrat';font-weight:700;font-size:48px;">$<tspan x="24.309px 43.125px 56.181px " y="378.66px 378.66px 378.66px ">1.3</tspan>M</text>
    </g>
    <g transform="matrix(1,0,0,1,274.674,263.9)">
        <text x="-7.923px" y="378.66px" style="font-family:'Montserrat-Bold', 'Montserrat';font-weight:700;font-size:48px;">$<tspan x="22.221px " y="378.66px ">1</tspan>.4M</text>
    </g>
    <g transform="matrix(1,0,0,1,454.038,203.9)">
        <text x="-6.363px" y="378.66px" style="font-family:'Montserrat-Bold', 'Montserrat';font-weight:700;font-size:48px;">$<tspan x="23.781px 42.597px 54.549px " y="378.66px 378.66px 378.66px ">1.6</tspan>M</text>
    </g>
    <g transform="matrix(1,0,0,1,704,83.9001)">
        <text x="-12.603px" y="378.66px" style="font-family:'Montserrat-Bold', 'Montserrat';font-weight:700;font-size:48px;">$2<tspan x="46.821px 58.773px " y="378.66px 378.66px ">.0</tspan>M</text>
    </g>
    <g transform="matrix(1,0,0,1,227.309,-71.6439)">
        <text x="-72.603px" y="378.66px" style="font-family:'Montserrat-Bold', 'Montserrat';font-weight:700;font-size:48px;">Millennials</text>
    </g>
    <g transform="matrix(1,0,0,1,229.421,8.35608)">
        <text x="-72.603px" y="378.66px" style="font-family:'Montserrat-Bold', 'Montserrat';font-weight:700;font-size:48px;">Gen<tspan x="28.149px 58.437px 78.789px " y="378.66px 378.66px 378.66px ">era</tspan>tion X</text>
    </g>
    <g transform="matrix(1,0,0,1,227.309,86.4601)">
        <text x="-72.603px" y="378.66px" style="font-family:'Montserrat-Bold', 'Montserrat';font-weight:700;font-size:48px;">Boom<tspan x="77.637px " y="378.66px ">e</tspan>rs</text>
    </g>
    <g transform="matrix(1,0,0,1,887.777,-96.0999)">
        <text x="-11.595px" y="378.66px" style="font-family:'Montserrat-Bold', 'Montserrat';font-weight:700;font-size:48px;">$2<tspan x="47.829px 59.781px " y="378.66px 378.66px ">.6</tspan>M</text>
    </g>
    <g transform="matrix(1,0,0,1,1064.02,-126.1)">
        <text x="-11.115px" y="378.66px" style="font-family:'Montserrat-Bold', 'Montserrat';font-weight:700;font-size:48px;">$2<tspan x="48.309px 60.117px " y="378.66px 378.66px ">.7</tspan>M</text>
    </g>
    <g transform="matrix(1,0,0,1,480.416,0.613038)">
        <text x="-235.408px" y="55.062px" style="font-family:'Montserrat-Bold', 'Montserrat';font-weight:700;font-size:48px;">Ho<tspan x="-165.904px " y="55.062px ">w</tspan> Muc<tspan x="-0.352px " y="55.062px ">h</tspan> Mon<tspan x="157.136px 186.944px " y="55.062px 55.062px ">ey</tspan> Do Y<tspan x="343.472px " y="55.062px ">o</tspan>u Need</text>
        <text x="-174.784px" y="107.062px" style="font-family:'Montserrat-Bold', 'Montserrat';font-weight:700;font-size:48px;">t<tspan x="-154.72px " y="107.062px ">o</tspan> Be W<tspan x="24.08px 53.648px 83.264px 99.584px 120.464px 153.152px " y="107.062px 107.062px 107.062px 107.062px 107.062px 107.062px ">ealthy</tspan> in Am<tspan x="344.048px 374.336px 394.832px " y="107.062px 107.062px 107.062px ">eri</tspan>ca<tspan x="465.152px " y="107.062px ">?</tspan></text>
    </g>
    <g transform="matrix(0.64302,0,0,0.643004,29.8758,142.168)">
        <rect x="83.69" y="180.64" width="93.31" height="93.312" style="fill:rgb(42,161,183);"/>
    </g>
    <g transform="matrix(0.64302,0,0,0.643004,29.8758,222.264)">
        <rect x="83.69" y="180.64" width="93.31" height="93.312" style="fill:rgb(124,160,88);"/>
    </g>
    <g transform="matrix(0.64302,0,0,0.643004,29.8758,302.36)">
        <rect x="83.69" y="180.64" width="93.31" height="93.312" style="fill:rgb(250,177,12);"/>
    </g>
    <g transform="matrix(1,0,0,1,-3.82505,25.228)">
        <text x="346.8px" y="131.303px" style="font-family:'Montserrat-SemiBold', 'Montserrat';font-weight:600;font-size:30px;">1,<tspan x="365.19px " y="131.303px ">0</tspan>00 Am<tspan x="488.25px 506.91px 519.36px " y="131.303px 131.303px 131.303px ">eri</tspan>cans bet<tspan x="659.61px 686.73px " y="131.303px 131.303px ">we</tspan>en a<tspan x="771.24px " y="131.303px ">g</tspan>e 21 an<tspan x="895.08px " y="131.303px ">d</tspan> 7<tspan x="941.67px " y="131.303px ">5</tspan></text>
        <text x="408.81px" y="161.303px" style="font-family:'Montserrat-SemiBold', 'Montserrat';font-weight:600;font-size:30px;">p<tspan x="429.18px 447.39px 460.44px " y="161.303px 161.303px 161.303px ">art</tspan>icip<tspan x="528.3px 546.51px 558.69px " y="161.303px 161.303px 161.303px ">ate</tspan>d in an onlin<tspan x="768.72px " y="161.303px ">e</tspan> sur<tspan x="844.59px 861.48px 879.84px " y="161.303px 161.303px 161.303px ">vey</tspan></text>
    </g>
</svg>
