<?xml version="1.0" encoding="UTF-8" standalone="no"?>
<!DOCTYPE svg PUBLIC "-//W3C//DTD SVG 1.1//EN" "http://www.w3.org/Graphics/SVG/1.1/DTD/svg11.dtd">
<svg width="100%" height="100%" viewBox="0 0 1080 1080" version="1.1" xmlns="http://www.w3.org/2000/svg" xmlns:xlink="http://www.w3.org/1999/xlink" xml:space="preserve" xmlns:serif="http://www.serif.com/" style="fill-rule:evenodd;clip-rule:evenodd;stroke-linecap:round;stroke-linejoin:round;stroke-miterlimit:1.5;">
    <g transform="matrix(0.910547,0,0,0.924344,144.244,16.0525)">
        <path d="M80,80L80,1020L928.845,1020" style="fill:none;stroke:rgb(153,153,153);stroke-width:4.36px;"/>
    </g>
    <g transform="matrix(1.01894,0,0,0.868884,-11.5502,65.6825)">
        <text x="145.376px" y="1020.59px" style="font-family:'Montserrat-SemiBold', 'Montserrat';font-weight:600;font-size:34.527px;">0<tspan x="168.785px 182.251px " y="1020.59px 1020.59px ">-4</tspan></text>
    </g>
    <g transform="matrix(1.01894,0,0,0.868884,47.2319,55.1713)">
        <text x="356.425px" y="1075.54px" style="font-family:'Montserrat-SemiBold', 'Montserrat';font-weight:600;font-size:34.527px;">1%</text>
    </g>
    <g transform="matrix(1.01894,0,0,0.868884,-11.5502,22.2383)">
        <text x="150.59px" y="1020.59px" style="font-family:'Montserrat-SemiBold', 'Montserrat';font-weight:600;font-size:34.527px;">5-9</text>
    </g>
    <g transform="matrix(1.01894,0,0,0.868884,-11.5502,-21.2059)">
        <text x="119.93px" y="1020.59px" style="font-family:'Montserrat-SemiBold', 'Montserrat';font-weight:600;font-size:34.527px;">10<tspan x="156.494px 169.096px " y="1020.59px 1020.59px ">-1</tspan>4</text>
    </g>
    <g transform="matrix(1.01894,0,0,0.868884,-11.5502,-64.6501)">
        <text x="124.97px" y="1020.59px" style="font-family:'Montserrat-SemiBold', 'Montserrat';font-weight:600;font-size:34.527px;">15-<tspan x="170.891px " y="1020.59px ">1</tspan>9</text>
    </g>
    <g transform="matrix(1.01894,0,0,0.868884,-11.5502,-108.094)">
        <text x="106.499px" y="1020.59px" style="font-family:'Montserrat-SemiBold', 'Montserrat';font-weight:600;font-size:34.527px;">2<tspan x="126.49px 149.899px 162.674px 182.251px " y="1020.59px 1020.59px 1020.59px 1020.59px ">0-24</tspan></text>
    </g>
    <g transform="matrix(1.01894,0,0,0.868884,-11.5502,-151.538)">
        <text x="110.918px" y="1020.59px" style="font-family:'Montserrat-SemiBold', 'Montserrat';font-weight:600;font-size:34.527px;">25-<tspan x="163.952px " y="1020.59px ">2</tspan>9</text>
    </g>
    <g transform="matrix(1.01894,0,0,0.868884,-11.5502,-194.983)">
        <text x="106.05px" y="1020.59px" style="font-family:'Montserrat-SemiBold', 'Montserrat';font-weight:600;font-size:34.527px;">30<tspan x="149.554px 162.156px " y="1020.59px 1020.59px ">-3</tspan>4</text>
    </g>
    <g transform="matrix(1.01894,0,0,0.868884,-11.5502,-238.427)">
        <text x="111.436px" y="1020.59px" style="font-family:'Montserrat-SemiBold', 'Montserrat';font-weight:600;font-size:34.527px;">3<tspan x="131.185px 151.349px 163.952px " y="1020.59px 1020.59px 1020.59px ">5-3</tspan>9</text>
    </g>
    <g transform="matrix(1.01894,0,0,0.868884,-11.5502,-281.871)">
        <text x="98.488px" y="1020.59px" style="font-family:'Montserrat-SemiBold', 'Montserrat';font-weight:600;font-size:34.527px;">40<tspan x="145.341px 158.807px " y="1020.59px 1020.59px ">-4</tspan>4</text>
    </g>
    <g transform="matrix(1.01894,0,0,0.868884,-11.5502,-325.315)">
        <text x="103.805px" y="1020.59px" style="font-family:'Montserrat-SemiBold', 'Montserrat';font-weight:600;font-size:34.527px;">4<tspan x="127.146px 147.31px 160.775px 184.046px " y="1020.59px 1020.59px 1020.59px 1020.59px ">5-49</tspan></text>
    </g>
    <g transform="matrix(1.01894,0,0,0.868884,-11.5502,-368.759)">
        <text x="105.221px" y="1020.59px" style="font-family:'Montserrat-SemiBold', 'Montserrat';font-weight:600;font-size:34.527px;">50<tspan x="148.794px " y="1020.59px ">-</tspan>54</text>
    </g>
    <g transform="matrix(1.01894,0,0,0.868884,-11.5502,-412.203)">
        <text x="110.435px" y="1020.59px" style="font-family:'Montserrat-SemiBold', 'Montserrat';font-weight:600;font-size:34.527px;">5<tspan x="130.426px " y="1020.59px ">5</tspan>-59</text>
    </g>
    <g transform="matrix(1.01894,0,0,0.868884,-11.5502,-455.648)">
        <text x="102.079px" y="1020.59px" style="font-family:'Montserrat-SemiBold', 'Montserrat';font-weight:600;font-size:34.527px;">60<tspan x="147.137px 160.602px " y="1020.59px 1020.59px ">-6</tspan>4</text>
    </g>
    <g transform="matrix(1.01894,0,0,0.868884,-11.5502,-499.092)">
        <text x="107.12px" y="1020.59px" style="font-family:'Montserrat-SemiBold', 'Montserrat';font-weight:600;font-size:34.527px;">65-<tspan x="162.398px " y="1020.59px ">6</tspan>9</text>
    </g>
    <g transform="matrix(1.01894,0,0,0.868884,-11.5502,-542.536)">
        <text x="106.844px" y="1020.59px" style="font-family:'Montserrat-SemiBold', 'Montserrat';font-weight:600;font-size:34.527px;">7<tspan x="127.146px 150.555px 163.503px 182.251px " y="1020.59px 1020.59px 1020.59px 1020.59px ">0-74</tspan></text>
    </g>
    <g transform="matrix(1.01894,0,0,0.868884,-11.5502,-585.98)">
        <text x="109.571px" y="1020.59px" style="font-family:'Montserrat-SemiBold', 'Montserrat';font-weight:600;font-size:34.527px;">7<tspan x="129.942px 150.106px 163.054px " y="1020.59px 1020.59px 1020.59px ">5-7</tspan>9</text>
    </g>
    <g transform="matrix(1.01894,0,0,0.868884,-11.5502,-629.424)">
        <text x="100.525px" y="1020.59px" style="font-family:'Montserrat-SemiBold', 'Montserrat';font-weight:600;font-size:34.527px;">80<tspan x="146.446px " y="1020.59px ">-</tspan>84</text>
    </g>
    <g transform="matrix(1.01894,0,0,0.868884,-11.5502,-672.869)">
        <text x="105.566px" y="1020.59px" style="font-family:'Montserrat-SemiBold', 'Montserrat';font-weight:600;font-size:34.527px;">85-89</text>
    </g>
    <g transform="matrix(1.01894,0,0,0.868884,-11.5502,-716.313)">
        <text x="102.252px" y="1020.59px" style="font-family:'Montserrat-SemiBold', 'Montserrat';font-weight:600;font-size:34.527px;">90<tspan x="147.31px " y="1020.59px ">-</tspan>94</text>
    </g>
    <g transform="matrix(1.01894,0,0,0.868884,-11.5502,-759.757)">
        <text x="103.667px" y="1020.59px" style="font-family:'Montserrat-SemiBold', 'Montserrat';font-weight:600;font-size:34.527px;">94<tspan x="149.105px " y="1020.59px ">-</tspan>99</text>
    </g>
    <g transform="matrix(2.14698,0,0,1,-212.281,0)">
        <g transform="matrix(0.96875,0,0,0.868884,6.2373,55.2447)">
            <rect x="200" y="1020" width="320" height="20" style="fill:rgb(80,107,190);stroke:rgb(153,153,153);stroke-width:0.63px;"/>
        </g>
        <g transform="matrix(0.96875,0,0,0.868884,6.2373,55.2447)">
            <rect x="200" y="1020" width="320" height="20" style="fill:rgb(80,107,190);stroke:rgb(153,153,153);stroke-width:0.63px;"/>
        </g>
        <g transform="matrix(1,0,0,0.868884,-0.0127018,11.8005)">
            <rect x="200" y="1020" width="320" height="20" style="fill:rgb(80,107,190);stroke:rgb(153,153,153);stroke-width:0.61px;"/>
        </g>
        <g transform="matrix(1.03125,0,0,0.868884,-6.2627,-31.6437)">
            <rect x="200" y="1020" width="320" height="20" style="fill:rgb(80,107,190);stroke:rgb(153,153,153);stroke-width:0.59px;"/>
        </g>
        <g transform="matrix(1,0,0,0.868884,-0.0127018,-75.0879)">
            <rect x="200" y="1020" width="320" height="20" style="fill:rgb(80,107,190);stroke:rgb(153,153,153);stroke-width:0.61px;"/>
        </g>
        <g transform="matrix(1.125,0,0,0.868884,-25.0127,-118.532)">
            <rect x="200" y="1020" width="320" height="20" style="fill:rgb(80,107,190);stroke:rgb(153,153,153);stroke-width:0.55px;"/>
        </g>
        <g transform="matrix(1.125,0,0,0.868884,-25.0127,-161.976)">
            <rect x="200" y="1020" width="320" height="20" style="fill:rgb(80,107,190);stroke:rgb(153,153,153);stroke-width:0.55px;"/>
        </g>
        <g transform="matrix(1.09375,0,0,0.868884,-18.7627,-205.42)">
            <rect x="200" y="1020" width="320" height="20" style="fill:rgb(80,107,190);stroke:rgb(153,153,153);stroke-width:0.56px;"/>
        </g>
        <g transform="matrix(1,0,0,0.868884,-0.0127018,-248.865)">
            <rect x="200" y="1020" width="320" height="20" style="fill:rgb(80,107,190);stroke:rgb(153,153,153);stroke-width:0.61px;"/>
        </g>
        <g transform="matrix(0.96875,0,0,0.868884,6.2373,-292.309)">
            <rect x="200" y="1020" width="320" height="20" style="fill:rgb(80,107,190);stroke:rgb(153,153,153);stroke-width:0.63px;"/>
        </g>
        <g transform="matrix(1,0,0,0.868884,-0.0127018,-335.753)">
            <rect x="200" y="1020" width="320" height="20" style="fill:rgb(80,107,190);stroke:rgb(153,153,153);stroke-width:0.61px;"/>
        </g>
        <g transform="matrix(1.0625,0,0,0.868884,-12.5127,-379.197)">
            <rect x="200" y="1020" width="320" height="20" style="fill:rgb(80,107,190);stroke:rgb(153,153,153);stroke-width:0.58px;"/>
        </g>
        <g transform="matrix(1.0625,0,0,0.868884,-12.5127,-422.641)">
            <rect x="200" y="1020" width="320" height="20" style="fill:rgb(80,107,190);stroke:rgb(153,153,153);stroke-width:0.58px;"/>
        </g>
        <g transform="matrix(0.9375,0,0,0.868884,12.4873,-466.085)">
            <rect x="200" y="1020" width="320" height="20" style="fill:rgb(80,107,190);stroke:rgb(153,153,153);stroke-width:0.65px;"/>
        </g>
        <g transform="matrix(0.78125,0,0,0.868884,43.7373,-509.53)">
            <rect x="200" y="1020" width="320" height="20" style="fill:rgb(80,107,190);stroke:rgb(153,153,153);stroke-width:0.75px;"/>
        </g>
        <g transform="matrix(0.5625,0,0,0.868884,87.4873,-552.974)">
            <rect x="200" y="1020" width="320" height="20" style="fill:rgb(80,107,190);stroke:rgb(153,153,153);stroke-width:0.95px;"/>
        </g>
        <g transform="matrix(0.375,0,0,0.868884,124.987,-596.418)">
            <rect x="200" y="1020" width="320" height="20" style="fill:rgb(80,107,190);stroke:rgb(153,153,153);stroke-width:1.19px;"/>
        </g>
        <g transform="matrix(0.25,0,0,0.868884,149.987,-639.862)">
            <rect x="200" y="1020" width="320" height="20" style="fill:rgb(80,107,190);stroke:rgb(153,153,153);stroke-width:1.38px;"/>
        </g>
        <g transform="matrix(0.15625,0,0,0.868884,168.737,-683.306)">
            <rect x="200" y="1020" width="320" height="20" style="fill:rgb(80,107,190);stroke:rgb(153,153,153);stroke-width:1.52px;"/>
        </g>
        <g transform="matrix(0.0625,0,0,0.868884,187.487,-726.751)">
            <rect x="200" y="1020" width="320" height="20" style="fill:rgb(80,107,190);stroke:rgb(153,153,153);stroke-width:1.61px;"/>
        </g>
        <g transform="matrix(0.009375,0,0,0.868884,198.112,-770.195)">
            <rect x="200" y="1020" width="320" height="20" style="fill:rgb(80,107,190);stroke:rgb(153,153,153);stroke-width:1.63px;"/>
        </g>
        <g transform="matrix(0.9375,0,0,0.868884,12.4873,37.867)">
            <rect x="200" y="1020" width="320" height="20" style="fill:rgb(187,29,102);stroke:rgb(153,153,153);stroke-width:0.65px;"/>
        </g>
        <g transform="matrix(0.96875,0,0,0.868884,6.2373,-5.57719)">
            <rect x="200" y="1020" width="320" height="20" style="fill:rgb(187,29,102);stroke:rgb(153,153,153);stroke-width:0.63px;"/>
        </g>
        <g transform="matrix(1,0,0,0.868884,-0.0127018,-49.0214)">
            <rect x="200" y="1020" width="320" height="20" style="fill:rgb(187,29,102);stroke:rgb(153,153,153);stroke-width:0.61px;"/>
        </g>
        <g transform="matrix(0.96875,0,0,0.868884,6.2373,-92.4655)">
            <rect x="200" y="1020" width="320" height="20" style="fill:rgb(187,29,102);stroke:rgb(153,153,153);stroke-width:0.63px;"/>
        </g>
        <g transform="matrix(1.0625,0,0,0.868884,-12.5127,-135.91)">
            <rect x="200" y="1020" width="320" height="20" style="fill:rgb(187,29,102);stroke:rgb(153,153,153);stroke-width:0.58px;"/>
        </g>
        <g transform="matrix(1.0625,0,0,0.868884,-12.5127,-179.354)">
            <rect x="200" y="1020" width="320" height="20" style="fill:rgb(187,29,102);stroke:rgb(153,153,153);stroke-width:0.58px;"/>
        </g>
        <g transform="matrix(1.0625,0,0,0.868884,-12.5127,-222.798)">
            <rect x="200" y="1020" width="320" height="20" style="fill:rgb(187,29,102);stroke:rgb(153,153,153);stroke-width:0.58px;"/>
        </g>
        <g transform="matrix(0.96875,0,0,0.868884,6.2373,-266.242)">
            <rect x="200" y="1020" width="320" height="20" style="fill:rgb(187,29,102);stroke:rgb(153,153,153);stroke-width:0.63px;"/>
        </g>
        <g transform="matrix(0.96875,0,0,0.868884,6.2373,-309.686)">
            <rect x="200" y="1020" width="320" height="20" style="fill:rgb(187,29,102);stroke:rgb(153,153,153);stroke-width:0.63px;"/>
        </g>
        <g transform="matrix(0.96875,0,0,0.868884,6.2373,-353.131)">
            <rect x="200" y="1020" width="320" height="20" style="fill:rgb(187,29,102);stroke:rgb(153,153,153);stroke-width:0.63px;"/>
        </g>
        <g transform="matrix(1.0625,0,0,0.868884,-12.5127,-396.575)">
            <rect x="200" y="1020" width="320" height="20" style="fill:rgb(187,29,102);stroke:rgb(153,153,153);stroke-width:0.58px;"/>
        </g>
        <g transform="matrix(1.09375,0,0,0.868884,-18.7627,-440.019)">
            <rect x="200" y="1020" width="320" height="20" style="fill:rgb(187,29,102);stroke:rgb(153,153,153);stroke-width:0.56px;"/>
        </g>
        <g transform="matrix(1,0,0,0.868884,-0.0127018,-483.463)">
            <rect x="200" y="1020" width="320" height="20" style="fill:rgb(187,29,102);stroke:rgb(153,153,153);stroke-width:0.61px;"/>
        </g>
        <g transform="matrix(0.84375,0,0,0.868884,31.2373,-526.907)">
            <rect x="200" y="1020" width="320" height="20" style="fill:rgb(187,29,102);stroke:rgb(153,153,153);stroke-width:0.7px;"/>
        </g>
        <g transform="matrix(0.65625,0,0,0.868884,68.7373,-570.351)">
            <rect x="200" y="1020" width="320" height="20" style="fill:rgb(187,29,102);stroke:rgb(153,153,153);stroke-width:0.85px;"/>
        </g>
        <g transform="matrix(0.4375,0,0,0.868884,112.487,-613.796)">
            <rect x="200" y="1020" width="320" height="20" style="fill:rgb(187,29,102);stroke:rgb(153,153,153);stroke-width:1.11px;"/>
        </g>
        <g transform="matrix(0.34375,0,0,0.868884,131.237,-657.24)">
            <rect x="200" y="1020" width="320" height="20" style="fill:rgb(187,29,102);stroke:rgb(153,153,153);stroke-width:1.24px;"/>
        </g>
        <g transform="matrix(0.21875,0,0,0.868884,156.237,-700.684)">
            <rect x="200" y="1020" width="320" height="20" style="fill:rgb(187,29,102);stroke:rgb(153,153,153);stroke-width:1.43px;"/>
        </g>
        <g transform="matrix(0.125,0,0,0.868884,174.987,-744.128)">
            <rect x="200" y="1020" width="320" height="20" style="fill:rgb(187,29,102);stroke:rgb(153,153,153);stroke-width:1.56px;"/>
        </g>
        <g transform="matrix(0.03125,0,0,0.868884,193.737,-787.572)">
            <rect x="200" y="1020" width="320" height="20" style="fill:rgb(187,29,102);stroke:rgb(153,153,153);stroke-width:1.62px;"/>
        </g>
    </g>
    <g transform="matrix(0.15625,0,0,2.5,787.545,-2298.95)">
        <rect x="200" y="1020" width="320" height="20" style="fill:rgb(80,107,190);stroke:rgb(153,153,153);stroke-width:0.56px;"/>
    </g>
    <g transform="matrix(0.15625,0,0,2.5,787.545,-2378.95)">
        <rect x="200" y="1020" width="320" height="20" style="fill:rgb(187,29,102);stroke:rgb(153,153,153);stroke-width:0.56px;"/>
    </g>
    <g transform="matrix(1,0,0,1,243.251,78.8815)">
        <text x="642.767px" y="128.191px" style="font-family:'Montserrat-SemiBold', 'Montserrat';font-weight:600;font-size:30px;">F<tspan x="661.427px " y="128.191px ">e</tspan>male</text>
    </g>
    <g transform="matrix(1.34259,0,0,1.34259,-0.27782,-369.724)">
        <g id="Footer">
            <g>
                <g transform="matrix(0.304791,0,0,0.304791,21.8059,753.327)">
                    <g transform="matrix(0.784717,0,0,0.793106,-64.1849,-549.287)">
                        <path d="M116.054,1919.86L205.862,1919.86L205.862,1831C175.913,1860.76 146.079,1890.14 116.054,1919.86Z" style="fill:rgb(42,161,183);"/>
                    </g>
                    <g transform="matrix(0.774384,0,0,0.781381,-62.8377,-529.87)">
                        <path d="M115.862,1833.63L115.862,1921L159.944,1877.43L115.862,1833.63Z" style="fill:rgb(243,80,5);"/>
                    </g>
                </g>
                <g transform="matrix(1,0,0,1,-69.3695,114.318)">
                    <text x="131.565px" y="935.442px" style="font-family:'Montserrat-Medium', 'Montserrat';font-weight:500;font-size:30px;">MAKED<tspan x="248.325px 269.235px 285.795px " y="935.442px 935.442px 935.442px ">ATA</tspan>SHINE<tspan x="404.805px 411.015px 432.255px " y="935.442px 935.442px 935.442px ">.CO</tspan>M</text>
                </g>
            </g>
        </g>
    </g>
    <g transform="matrix(1.01894,0,0,0.868884,80.804,55.2651)">
        <text x="530.54px" y="1075.54px" style="font-family:'Montserrat-SemiBold', 'Montserrat';font-weight:600;font-size:34.527px;">2<tspan x="550.98px " y="1075.54px ">%</tspan></text>
    </g>
    <g transform="matrix(1.01894,0,0,0.868884,71.5228,56.0947)">
        <text x="750.821px" y="1074.58px" style="font-family:'Montserrat-SemiBold', 'Montserrat';font-weight:600;font-size:34.527px;">3<tspan x="770.571px " y="1074.58px ">%</tspan></text>
    </g>
    <g transform="matrix(1,0,0,1,739.995,47.6852)">
        <text x="-661.051px" y="13.258px" style="font-family:'Montserrat-SemiBold', 'Montserrat';font-weight:600;font-size:64px;">W<tspan x="-591.355px -550.075px -523.515px " y="13.258px 13.258px 13.258px ">orl</tspan>d A<tspan x="-395.771px " y="13.258px ">g</tspan>e Distr<tspan x="-135.867px " y="13.258px ">i</tspan>bution 2<tspan x="155.589px 198.341px " y="13.258px 13.258px ">01</tspan>7</text>
    </g>
    <g transform="matrix(1,0,0,1,213.477,73.2461)">
        <text x="672.541px" y="213.826px" style="font-family:'Montserrat-SemiBold', 'Montserrat';font-weight:600;font-size:30px;">Male</text>
    </g>
    <g transform="matrix(1,0,0,1,451.942,-9.01193)">
        <text x="90.996px" y="116.371px" style="font-family:'Montserrat-SemiBold', 'Montserrat';font-weight:600;font-size:30px;">T<tspan x="107.406px " y="116.371px ">o</tspan>tal population: 7<tspan x="376.086px " y="116.371px ">,</tspan>515,<tspan x="437.496px " y="116.371px ">2</tspan>84<tspan x="495.486px 502.356px 513.786px 531.156px " y="116.371px 116.371px 116.371px 116.371px ">,153</tspan></text>
    </g>
    <g transform="matrix(1.40668,0,0,1.40668,1147.56,-237.139)">
        <text x="-275.857px" y="905.487px" style="font-family:'Montserrat-Bold', 'Montserrat';font-weight:700;font-size:12px;">Sour<tspan x="-247.033px " y="905.487px ">c</tspan>e:  P<tspan x="-213.865px " y="905.487px ">o</tspan>pulationPyr<tspan x="-132.481px " y="905.487px ">a</tspan>mid.net</text>
    </g>
</svg>
