<?xml version="1.0" encoding="UTF-8" standalone="no"?>
<!DOCTYPE svg PUBLIC "-//W3C//DTD SVG 1.1//EN" "http://www.w3.org/Graphics/SVG/1.1/DTD/svg11.dtd">
<svg width="100%" height="100%" viewBox="0 0 1080 1080" version="1.1" xmlns="http://www.w3.org/2000/svg" xmlns:xlink="http://www.w3.org/1999/xlink" xml:space="preserve" xmlns:serif="http://www.serif.com/" style="fill-rule:evenodd;clip-rule:evenodd;stroke-linecap:round;stroke-linejoin:round;stroke-miterlimit:1.5;">
    <g transform="matrix(0.692308,0,0,-0.692308,114.155,585)">
        <g>
            <g transform="matrix(1,0,0,1,100,1.13687e-13)">
                <path d="M0,700L0,0" style="fill:none;stroke:rgb(153,153,153);stroke-width:1.44px;"/>
            </g>
            <g transform="matrix(1,0,0,1,200,3.41061e-13)">
                <path d="M0,700L0,0" style="fill:none;stroke:rgb(153,153,153);stroke-width:1.44px;"/>
            </g>
            <g transform="matrix(1,0,0,1,300,5.68434e-13)">
                <path d="M0,700L0,0" style="fill:none;stroke:rgb(153,153,153);stroke-width:1.44px;"/>
            </g>
            <g transform="matrix(1,0,0,1,400,7.95808e-13)">
                <path d="M0,700L0,0" style="fill:none;stroke:rgb(153,153,153);stroke-width:1.44px;"/>
            </g>
            <g transform="matrix(1,0,0,1,500,1.02318e-12)">
                <path d="M0,700L0,0" style="fill:none;stroke:rgb(153,153,153);stroke-width:1.44px;"/>
            </g>
            <g transform="matrix(1,0,0,1,600,1.25056e-12)">
                <path d="M0,700L0,0" style="fill:none;stroke:rgb(153,153,153);stroke-width:1.44px;"/>
            </g>
            <g transform="matrix(1,0,0,1,700,1.47793e-12)">
                <path d="M0,700L0,0" style="fill:none;stroke:rgb(153,153,153);stroke-width:1.44px;"/>
            </g>
            <g transform="matrix(1,0,0,1,800,1.7053e-12)">
                <path d="M0,700L0,0" style="fill:none;stroke:rgb(153,153,153);stroke-width:1.44px;"/>
            </g>
            <g transform="matrix(1,0,0,1,900,1.93268e-12)">
                <path d="M0,700L0,0" style="fill:none;stroke:rgb(153,153,153);stroke-width:1.44px;"/>
            </g>
            <g transform="matrix(1,0,0,1,1000,2.16005e-12)">
                <path d="M0,700L0,0" style="fill:none;stroke:rgb(153,153,153);stroke-width:1.44px;"/>
            </g>
            <g transform="matrix(1,0,0,1,1100,2.38742e-12)">
                <path d="M0,700L0,0" style="fill:none;stroke:rgb(153,153,153);stroke-width:1.44px;"/>
            </g>
            <g transform="matrix(1,0,0,1,1200,2.6148e-12)">
                <path d="M0,700L0,0" style="fill:none;stroke:rgb(153,153,153);stroke-width:1.44px;"/>
            </g>
        </g>
        <g>
            <g transform="matrix(1.12554,0,0,1,-1.42109e-14,103)">
                <path d="M0,97L1155,97" style="fill:none;stroke:rgb(153,153,153);stroke-width:1.36px;"/>
            </g>
            <g transform="matrix(1.12554,0,0,1,-1.42109e-14,203)">
                <path d="M0,97L1155,97" style="fill:none;stroke:rgb(153,153,153);stroke-width:1.36px;"/>
            </g>
            <g transform="matrix(1.12554,0,0,1,-1.42109e-14,303)">
                <path d="M0,97L1155,97" style="fill:none;stroke:rgb(153,153,153);stroke-width:1.36px;"/>
            </g>
            <g transform="matrix(1.12554,0,0,1,-1.42109e-14,403)">
                <path d="M0,97L1155,97" style="fill:none;stroke:rgb(153,153,153);stroke-width:1.36px;"/>
            </g>
            <g transform="matrix(1.12554,0,0,1,-1.42109e-14,503)">
                <path d="M0,97L1155,97" style="fill:none;stroke:rgb(153,153,153);stroke-width:1.36px;"/>
            </g>
            <g transform="matrix(1.12554,0,0,1,-4.9738e-13,3)">
                <path d="M0,97L1155,97" style="fill:none;stroke:rgb(153,153,153);stroke-width:1.36px;"/>
            </g>
        </g>
        <g id="Axises" transform="matrix(1.00121,0,0,1.00121,-1.56651,-0.422222)">
            <g transform="matrix(1.12418,-1.40043e-19,-1.247e-19,1,-2.84217e-14,-97)">
                <path d="M0,97L1155,97" style="fill:none;stroke:rgb(19,21,21);stroke-width:4.07px;"/>
            </g>
            <path d="M0,700L0,0" style="fill:none;stroke:rgb(19,21,21);stroke-width:4.33px;"/>
        </g>
        <path id="Germany" d="M0,676L100,663L200,651L300,630L430,570L590,460L680,485L800,482L900,456L1000,438L1100,390L1200,398.459" style="fill:none;stroke:rgb(187,29,102);stroke-width:7.22px;"/>
        <g id="USA" transform="matrix(1,0,0,1,0,-60)">
            <path d="M0,680L100,670L200,660L300,651L430,643L590,540L680,433L800,484L900,462L1000,448L1100,457L1200,468" style="fill:none;stroke:rgb(80,107,190);stroke-width:7.22px;"/>
        </g>
    </g>
    <g transform="matrix(1,0,0,1,0,-34)">
        <g>
            <g transform="matrix(1,0,0,1.17525,44.155,-133.571)">
                <rect x="537" y="288.559" width="198.048" height="17.118" style="fill:rgb(254,255,254);"/>
            </g>
            <g transform="matrix(1,0,0,1,178.993,-16)">
                <text x="405.09px" y="237.185px" style="font-family:'Montserrat-Medium', 'Montserrat';font-weight:500;font-size:18px;">The Gr<tspan x="464.886px 475.632px " y="237.185px 237.185px ">ea</tspan>t Depr<tspan x="544.014px " y="237.185px ">e</tspan>ssion</text>
            </g>
        </g>
        <g>
            <g transform="matrix(1,0,0,0.613595,44.155,-18.0169)">
                <path d="M540,403.297L540,1037.02" style="fill:none;stroke:rgb(153,153,153);stroke-width:2.41px;stroke-linejoin:miter;stroke-miterlimit:4;stroke-dasharray:4.82,9.64,4.82,0;"/>
            </g>
            <g transform="matrix(1.10471,0,0,1,-12.3896,-81)">
                <path d="M540,310.444L716.56,310" style="fill:none;stroke:rgb(153,153,153);stroke-width:1.9px;stroke-linejoin:miter;stroke-miterlimit:4;stroke-dasharray:3.8,7.59,3.8,0;"/>
            </g>
        </g>
    </g>
    <g transform="matrix(1,0,0,1,0,-34)">
        <g transform="matrix(1,0,0,1,24.3326,-63.9767)">
            <text x="67.242px" y="711.377px" style="font-family:'Montserrat-SemiBold', 'Montserrat';font-weight:600;font-size:20px;">187<tspan x="99.662px " y="711.377px ">0</tspan></text>
        </g>
        <g transform="matrix(1,0,0,1,-1.66738,-154.257)">
            <text x="72.792px" y="711.377px" style="font-family:'Montserrat-SemiBold', 'Montserrat';font-weight:600;font-size:20px;">10h</text>
        </g>
        <g transform="matrix(1,0,0,1,-1.66738,-223.557)">
            <text x="68.832px" y="711.377px" style="font-family:'Montserrat-SemiBold', 'Montserrat';font-weight:600;font-size:20px;">20h</text>
        </g>
        <g transform="matrix(1,0,0,1,-1.66738,-292.857)">
            <text x="68.772px" y="711.377px" style="font-family:'Montserrat-SemiBold', 'Montserrat';font-weight:600;font-size:20px;">30h</text>
        </g>
        <g transform="matrix(1,0,0,1,-1.66738,-362.157)">
            <text x="66.832px" y="711.377px" style="font-family:'Montserrat-SemiBold', 'Montserrat';font-weight:600;font-size:20px;">40h</text>
        </g>
        <g transform="matrix(1,0,0,1,-1.66738,-431.457)">
            <text x="68.732px" y="711.377px" style="font-family:'Montserrat-SemiBold', 'Montserrat';font-weight:600;font-size:20px;">50h</text>
        </g>
        <g transform="matrix(1,0,0,1,-1.66738,-500.757)">
            <text x="67.872px" y="711.377px" style="font-family:'Montserrat-SemiBold', 'Montserrat';font-weight:600;font-size:20px;">60h</text>
        </g>
        <g transform="matrix(1,0,0,1,93.3326,-63.9767)">
            <text x="67.242px" y="711.377px" style="font-family:'Montserrat-SemiBold', 'Montserrat';font-weight:600;font-size:20px;">1880</text>
        </g>
        <g transform="matrix(1,0,0,1,163.333,-63.9767)">
            <text x="66.852px" y="711.377px" style="font-family:'Montserrat-SemiBold', 'Montserrat';font-weight:600;font-size:20px;">1890</text>
        </g>
        <g transform="matrix(1,0,0,1,232.333,-63.9767)">
            <text x="66.642px" y="711.377px" style="font-family:'Montserrat-SemiBold', 'Montserrat';font-weight:600;font-size:20px;">1900</text>
        </g>
        <g transform="matrix(1,0,0,1,301.333,-63.9767)">
            <text x="69.612px" y="711.377px" style="font-family:'Montserrat-SemiBold', 'Montserrat';font-weight:600;font-size:20px;">1910</text>
        </g>
        <g transform="matrix(1,0,0,1,370.333,-63.9767)">
            <text x="67.632px" y="711.377px" style="font-family:'Montserrat-SemiBold', 'Montserrat';font-weight:600;font-size:20px;">19<tspan x="87.692px " y="711.377px ">2</tspan>0</text>
        </g>
        <g transform="matrix(1,0,0,1,439.333,-63.9767)">
            <text x="67.652px" y="711.377px" style="font-family:'Montserrat-SemiBold', 'Montserrat';font-weight:600;font-size:20px;">19<tspan x="87.612px " y="711.377px ">3</tspan>0</text>
        </g>
        <g transform="matrix(1,0,0,1,509.333,-63.9767)">
            <text x="66.582px" y="711.377px" style="font-family:'Montserrat-SemiBold', 'Montserrat';font-weight:600;font-size:20px;">1940</text>
        </g>
        <g transform="matrix(1,0,0,1,579.333,-63.9767)">
            <text x="67.532px" y="711.377px" style="font-family:'Montserrat-SemiBold', 'Montserrat';font-weight:600;font-size:20px;">1950</text>
        </g>
        <g transform="matrix(1,0,0,1,648.333,-63.9767)">
            <text x="67.102px" y="711.377px" style="font-family:'Montserrat-SemiBold', 'Montserrat';font-weight:600;font-size:20px;">1960</text>
        </g>
        <g transform="matrix(1,0,0,1,717.333,-63.9767)">
            <text x="66.852px" y="711.377px" style="font-family:'Montserrat-SemiBold', 'Montserrat';font-weight:600;font-size:20px;">1980</text>
        </g>
        <g transform="matrix(1,0,0,1,786.333,-63.9767)">
            <text x="67.102px" y="711.377px" style="font-family:'Montserrat-SemiBold', 'Montserrat';font-weight:600;font-size:20px;">1990</text>
        </g>
        <g transform="matrix(1,0,0,1,855.333,-63.9767)">
            <text x="64.202px" y="711.377px" style="font-family:'Montserrat-SemiBold', 'Montserrat';font-weight:600;font-size:20px;">2000</text>
        </g>
    </g>
    <g transform="matrix(1,0,0,1,635.744,17.4571)">
        <text x="-542.336px" y="48.447px" style="font-family:'Montserrat-Medium', 'Montserrat';font-weight:500;font-size:48px;">Hour<tspan x="-420.848px " y="48.447px ">s</tspan> of W<tspan x="-272.144px -241.664px -222.32px " y="48.447px 48.447px 48.447px ">ork</tspan> per W<tspan x="-33.728px " y="48.447px ">e</tspan>ek (<tspan x="84.16px " y="48.447px ">1</tspan>87<tspan x="160.576px 192.928px 210.688px 238.096px " y="48.447px 48.447px 48.447px 48.447px ">0-20</tspan>00)</text>
    </g>
    <g transform="matrix(1.11243,0,0,1.11243,-3.49781,-437.117)">
        <g transform="matrix(0.982558,0,0,1.00629,-4.59302,3.77804)">
            <rect x="138" y="678" width="344" height="159" style="fill:rgb(254,255,254);stroke:rgb(19,21,21);stroke-width:3.62px;"/>
        </g>
        <g transform="matrix(0.71672,0,0,0.71672,693.715,709.766)">
            <text x="-756.464px" y="0px" style="font-family:'Montserrat-MediumItalic', 'Montserrat';font-weight:500;font-style:italic;font-size:18px;stroke:black;stroke-width:0.1px;stroke-linecap:butt;stroke-miterlimit:1.41421;">&quot;<tspan x="-749.282px " y="0px ">T</tspan>he lon<tspan x="-681.8px " y="0px ">g</tspan>-run dec<tspan x="-592.394px " y="0px ">l</tspan>ine is gen<tspan x="-499.586px -488.588px -481.424px " y="0px 0px 0px ">era</tspan>lly at<tspan x="-424.706px -417.254px -410px " y="0px 0px 0px ">tri</tspan>but<tspan x="-373.388px " y="0px ">e</tspan>d</text>
            <text x="-756.464px" y="24px" style="font-family:'Montserrat-MediumItalic', 'Montserrat';font-weight:500;font-style:italic;font-size:18px;stroke:black;stroke-width:0.1px;stroke-linecap:butt;stroke-miterlimit:1.41421;">t<tspan x="-749.336px " y="24px ">o</tspan> the combined eff<tspan x="-575.582px -564.584px -554.18px " y="24px 24px 24px ">ect</tspan>s of the rise in inc<tspan x="-387.914px " y="24px ">o</tspan>me</text>
            <text x="-756.464px" y="48px" style="font-family:'Montserrat-MediumItalic', 'Montserrat';font-weight:500;font-style:italic;font-size:18px;stroke:black;stroke-width:0.1px;stroke-linecap:butt;stroke-miterlimit:1.41421;">and fall in the r<tspan x="-616.496px " y="48px ">e</tspan>lativ<tspan x="-565.934px " y="48px ">e</tspan> c<tspan x="-539.96px " y="48px ">o</tspan>st of leisur<tspan x="-435.182px " y="48px ">e</tspan>,</text>
            <text x="-756.464px" y="72px" style="font-family:'Montserrat-MediumItalic', 'Montserrat';font-weight:500;font-style:italic;font-size:18px;stroke:black;stroke-width:0.1px;stroke-linecap:butt;stroke-miterlimit:1.41421;">al<tspan x="-738.932px " y="72px ">t</tspan>hough economic gr<tspan x="-550.976px -539.816px -523.328px " y="72px 72px 72px ">owt</tspan>h and th<tspan x="-437.306px " y="72px ">e</tspan> diffusion</text>
            <text x="-756.464px" y="96px" style="font-family:'Montserrat-MediumItalic', 'Montserrat';font-weight:500;font-style:italic;font-size:18px;stroke:black;stroke-width:0.1px;stroke-linecap:butt;stroke-miterlimit:1.41421;">of time<tspan x="-691.106px " y="96px ">-</tspan>using leisur<tspan x="-579.002px " y="96px ">e</tspan> goods w<tspan x="-485.798px " y="96px ">a</tspan>s c<tspan x="-449.528px -438.53px -430.88px -423.752px " y="96px 96px 96px 96px ">erta</tspan>inly</text>
            <text x="-756.464px" y="120px" style="font-family:'Montserrat-MediumItalic', 'Montserrat';font-weight:500;font-style:italic;font-size:18px;stroke:black;stroke-width:0.1px;stroke-linecap:butt;stroke-miterlimit:1.41421;">not cont<tspan x="-679.478px " y="120px ">e</tspan>mpor<tspan x="-618.584px " y="120px ">a</tspan>neous acr<tspan x="-515.804px " y="120px ">o</tspan>ss r<tspan x="-474.332px " y="120px ">e</tspan>gions</text>
            <text x="-756.464px" y="144px" style="font-family:'Montserrat-MediumItalic', 'Montserrat';font-weight:500;font-style:italic;font-size:18px;stroke:black;stroke-width:0.1px;stroke-linecap:butt;stroke-miterlimit:1.41421;">and within Eur<tspan x="-620.402px " y="144px ">o</tspan>pe.<tspan x="-582.602px " y="144px ">&quot;</tspan></text>
            <text x="-756.464px" y="168px" style="font-family:'Montserrat-Medium', 'Montserrat';font-weight:500;font-size:18px;stroke:black;stroke-width:0.1px;stroke-linecap:butt;stroke-miterlimit:1.41421;">Mic<tspan x="-724.1px " y="168px ">h</tspan>ael Huberman, Chr<tspan x="-539.294px " y="168px ">i</tspan>s Minns</text>
        </g>
    </g>
    <g transform="matrix(1,0,0,1,-1.13687e-13,19.8162)">
        <g transform="matrix(1,0,0,1,-1.66738,164.943)">
            <text x="86.492px" y="711.377px" style="font-family:'Montserrat-SemiBold', 'Montserrat';font-weight:600;font-size:20px;">10</text>
        </g>
        <g transform="matrix(1,0,0,1,-1.66738,92.9433)">
            <text x="82.532px" y="711.377px" style="font-family:'Montserrat-SemiBold', 'Montserrat';font-weight:600;font-size:20px;">20</text>
        </g>
        <g transform="matrix(1,0,0,1,-1.46738,20.9433)">
            <text x="82.472px" y="711.377px" style="font-family:'Montserrat-SemiBold', 'Montserrat';font-weight:600;font-size:20px;">30</text>
        </g>
        <g transform="matrix(1,0,0,1,-0.827384,-51.0567)">
            <text x="80.532px" y="711.377px" style="font-family:'Montserrat-SemiBold', 'Montserrat';font-weight:600;font-size:20px;">40</text>
        </g>
    </g>
    <g transform="matrix(1,0,0,-1.03539,-7.10543e-14,1615.99)">
        <g transform="matrix(0.692308,0,0,0.660153,114.155,639.146)">
            <g transform="matrix(1,1.4737e-19,9.71942e-20,0.660317,100,-0.277778)">
                <path d="M0,700L0,0" style="fill:none;stroke:rgb(153,153,153);stroke-width:1.71px;"/>
            </g>
            <g transform="matrix(1,0,0,0.659524,200,2.24938e-13)">
                <path d="M0,700L0,0" style="fill:none;stroke:rgb(153,153,153);stroke-width:1.71px;"/>
            </g>
            <g transform="matrix(1,0,0,0.659524,300,3.74896e-13)">
                <path d="M0,700L0,0" style="fill:none;stroke:rgb(153,153,153);stroke-width:1.71px;"/>
            </g>
            <g transform="matrix(1,0,0,0.659524,400,5.24854e-13)">
                <path d="M0,700L0,0" style="fill:none;stroke:rgb(153,153,153);stroke-width:1.71px;"/>
            </g>
            <g transform="matrix(1,0,0,0.659524,500,6.74813e-13)">
                <path d="M0,700L0,0" style="fill:none;stroke:rgb(153,153,153);stroke-width:1.71px;"/>
            </g>
            <g transform="matrix(1,0,0,0.659524,600,8.24771e-13)">
                <path d="M0,700L0,0" style="fill:none;stroke:rgb(153,153,153);stroke-width:1.71px;"/>
            </g>
            <g transform="matrix(1,0,0,0.659524,700,9.74729e-13)">
                <path d="M0,700L0,0" style="fill:none;stroke:rgb(153,153,153);stroke-width:1.71px;"/>
            </g>
            <g transform="matrix(1,0,0,0.659524,800,1.12469e-12)">
                <path d="M0,700L0,0" style="fill:none;stroke:rgb(153,153,153);stroke-width:1.71px;"/>
            </g>
            <g transform="matrix(1,0,0,0.659524,900,1.27465e-12)">
                <path d="M0,700L0,0" style="fill:none;stroke:rgb(153,153,153);stroke-width:1.71px;"/>
            </g>
            <g transform="matrix(1,0,0,0.659524,1000,1.4246e-12)">
                <path d="M0,700L0,0" style="fill:none;stroke:rgb(153,153,153);stroke-width:1.71px;"/>
            </g>
            <g transform="matrix(1,0,0,0.659524,1100,1.57456e-12)">
                <path d="M0,700L0,0" style="fill:none;stroke:rgb(153,153,153);stroke-width:1.71px;"/>
            </g>
            <g transform="matrix(1,0,0,0.659524,1200,1.72452e-12)">
                <path d="M0,700L0,0" style="fill:none;stroke:rgb(153,153,153);stroke-width:1.71px;"/>
            </g>
        </g>
        <g transform="matrix(0.692308,0,0,0.692308,114.155,639.169)">
            <g transform="matrix(1.12554,0,0,1,-1.42109e-14,103)">
                <path d="M0,97L1155,97" style="fill:none;stroke:rgb(153,153,153);stroke-width:1.34px;"/>
            </g>
            <g transform="matrix(1.12554,0,0,1,-1.42109e-14,203)">
                <path d="M0,97L1155,97" style="fill:none;stroke:rgb(153,153,153);stroke-width:1.34px;"/>
            </g>
            <g transform="matrix(1.12554,0,0,1,-1.42109e-14,303)">
                <path d="M0,97L1155,97" style="fill:none;stroke:rgb(153,153,153);stroke-width:1.34px;"/>
            </g>
            <g transform="matrix(1.12554,0,0,1,-4.9738e-13,3)">
                <path d="M0,97L1155,97" style="fill:none;stroke:rgb(153,153,153);stroke-width:1.34px;"/>
            </g>
        </g>
        <g id="Axises1" serif:id="Axises" transform="matrix(0.693143,0,0,0.600281,113.07,638.876)">
            <g transform="matrix(1.12418,-1.40043e-19,-1.247e-19,1,-2.84217e-14,-97)">
                <path d="M0,97L1155,97" style="fill:none;stroke:rgb(19,21,21);stroke-width:4.26px;"/>
            </g>
            <g transform="matrix(1,3.06929e-19,2.22328e-19,0.726178,-1.42109e-14,-4.90196e-13)">
                <path d="M0,700L0,0" style="fill:none;stroke:rgb(19,21,21);stroke-width:5.13px;"/>
            </g>
        </g>
    </g>
    <g id="USA1" serif:id="USA" transform="matrix(0.692283,0,0,0.496776,139.874,517.357)">
        <path d="M-37.231,836.333L262.934,821.889L641.78,648.556L762.934,634.111L962.934,576.333L1062.93,561.889L1162.05,605.222" style="fill:none;stroke:rgb(80,107,190);stroke-width:8.3px;"/>
    </g>
    <g id="Germany1" serif:id="Germany" transform="matrix(0.692308,0,0,0.496776,139.846,517.357)">
        <path d="M-37.188,707.778L262.934,634.111L641.78,446.333L762.934,475.222L962.934,475.222L1062.93,388.556L1162.05,279.823" style="fill:none;stroke:rgb(187,29,102);stroke-width:8.3px;"/>
    </g>
    <g transform="matrix(1,0,0,1,79.1194,24.8379)">
        <g transform="matrix(0.685225,0,0,0.532982,534.941,28.8484)">
            <rect x="138" y="678" width="344" height="159" style="fill:rgb(254,255,254);stroke:rgb(19,21,21);stroke-width:6.52px;"/>
        </g>
        <g transform="matrix(1,0,0,1,7,0)">
            <path d="M647,415.048L737.232,415.048" style="fill:none;stroke:rgb(80,107,190);stroke-width:6px;"/>
        </g>
        <g transform="matrix(1,0,0,1,0.74114,6.19041)">
            <text x="766.574px" y="415.3px" style="font-family:'ArialMT', 'Arial', sans-serif;font-size:18px;stroke:black;stroke-width:1px;stroke-linecap:butt;stroke-miterlimit:1.41421;">USA</text>
        </g>
        <g transform="matrix(1,0,0,1,7,31.5)">
            <path d="M647,415.048L737.232,415.048" style="fill:none;stroke:rgb(187,29,102);stroke-width:6px;"/>
        </g>
        <g transform="matrix(1,0,0,1,0.74114,37.6904)">
            <text x="766.574px" y="415.3px" style="font-family:'ArialMT', 'Arial', sans-serif;font-size:18px;stroke:black;stroke-width:1px;stroke-linecap:butt;stroke-miterlimit:1.41421;">Germany</text>
        </g>
    </g>
    <g transform="matrix(1,0,0,1,-1.13687e-13,19.8162)">
        <g transform="matrix(1,0,0,1,33.1576,255.223)">
            <text x="67.242px" y="711.377px" style="font-family:'Montserrat-SemiBold', 'Montserrat';font-weight:600;font-size:20px;">187<tspan x="99.662px " y="711.377px ">0</tspan></text>
        </g>
        <g transform="matrix(1,0,0,1,102.158,255.223)">
            <text x="67.242px" y="711.377px" style="font-family:'Montserrat-SemiBold', 'Montserrat';font-weight:600;font-size:20px;">1880</text>
        </g>
        <g transform="matrix(1,0,0,1,172.158,255.223)">
            <text x="66.852px" y="711.377px" style="font-family:'Montserrat-SemiBold', 'Montserrat';font-weight:600;font-size:20px;">1890</text>
        </g>
        <g transform="matrix(1,0,0,1,241.158,255.223)">
            <text x="66.642px" y="711.377px" style="font-family:'Montserrat-SemiBold', 'Montserrat';font-weight:600;font-size:20px;">1900</text>
        </g>
        <g transform="matrix(1,0,0,1,310.158,255.223)">
            <text x="69.612px" y="711.377px" style="font-family:'Montserrat-SemiBold', 'Montserrat';font-weight:600;font-size:20px;">1910</text>
        </g>
        <g transform="matrix(1,0,0,1,379.158,255.223)">
            <text x="67.632px" y="711.377px" style="font-family:'Montserrat-SemiBold', 'Montserrat';font-weight:600;font-size:20px;">19<tspan x="87.692px " y="711.377px ">2</tspan>0</text>
        </g>
        <g transform="matrix(1,0,0,1,448.158,255.223)">
            <text x="67.652px" y="711.377px" style="font-family:'Montserrat-SemiBold', 'Montserrat';font-weight:600;font-size:20px;">19<tspan x="87.612px " y="711.377px ">3</tspan>0</text>
        </g>
        <g transform="matrix(1,0,0,1,518.158,255.223)">
            <text x="66.582px" y="711.377px" style="font-family:'Montserrat-SemiBold', 'Montserrat';font-weight:600;font-size:20px;">1940</text>
        </g>
        <g transform="matrix(1,0,0,1,588.158,255.223)">
            <text x="67.532px" y="711.377px" style="font-family:'Montserrat-SemiBold', 'Montserrat';font-weight:600;font-size:20px;">1950</text>
        </g>
        <g transform="matrix(1,0,0,1,657.158,255.223)">
            <text x="67.102px" y="711.377px" style="font-family:'Montserrat-SemiBold', 'Montserrat';font-weight:600;font-size:20px;">1960</text>
        </g>
        <g transform="matrix(1,0,0,1,726.158,255.223)">
            <text x="66.852px" y="711.377px" style="font-family:'Montserrat-SemiBold', 'Montserrat';font-weight:600;font-size:20px;">1980</text>
        </g>
        <g transform="matrix(1,0,0,1,795.158,255.223)">
            <text x="67.102px" y="711.377px" style="font-family:'Montserrat-SemiBold', 'Montserrat';font-weight:600;font-size:20px;">1990</text>
        </g>
        <g transform="matrix(1,0,0,1,864.158,255.223)">
            <text x="64.202px" y="711.377px" style="font-family:'Montserrat-SemiBold', 'Montserrat';font-weight:600;font-size:20px;">2000</text>
        </g>
    </g>
    <g transform="matrix(1,0,0,1,79.1194,463.754)">
        <g transform="matrix(0.685225,0,0,0.532982,534.941,28.8484)">
            <rect x="138" y="678" width="344" height="159" style="fill:rgb(254,255,254);stroke:rgb(19,21,21);stroke-width:6.52px;"/>
        </g>
        <g transform="matrix(1,0,0,1,7,0)">
            <path d="M647,415.048L737.232,415.048" style="fill:none;stroke:rgb(80,107,190);stroke-width:6px;"/>
        </g>
        <g transform="matrix(1,0,0,1,0.74114,6.19041)">
            <text x="766.574px" y="415.3px" style="font-family:'ArialMT', 'Arial', sans-serif;font-size:18px;stroke:black;stroke-width:1px;stroke-linecap:butt;stroke-miterlimit:1.41421;">USA</text>
        </g>
        <g transform="matrix(1,0,0,1,7,31.5)">
            <path d="M647,415.048L737.232,415.048" style="fill:none;stroke:rgb(187,29,102);stroke-width:6px;"/>
        </g>
        <g transform="matrix(1,0,0,1,0.74114,37.6904)">
            <text x="766.574px" y="415.3px" style="font-family:'ArialMT', 'Arial', sans-serif;font-size:18px;stroke:black;stroke-width:1px;stroke-linecap:butt;stroke-miterlimit:1.41421;">Germany</text>
        </g>
    </g>
    <g transform="matrix(0.980886,0,0,0.988364,-337.04,461.816)">
        <g transform="matrix(2.12599,0,0,4.91401,-644.501,-1232.42)">
            <rect x="537" y="288.559" width="198.048" height="17.118" style="fill:rgb(254,255,254);"/>
        </g>
        <g transform="matrix(1,0,0,1,203.993,-18.708)">
            <text x="300.645px" y="237.185px" style="font-family:'Montserrat-Medium', 'Montserrat';font-weight:500;font-size:36px;">V<tspan x="324.297px 345.933px " y="237.185px 237.185px ">ac</tspan>ation an<tspan x="516.177px " y="237.185px ">d</tspan> Holida<tspan x="668.313px 688.185px " y="237.185px 237.185px ">ys</tspan></text>
            <text x="368.379px" y="273.185px" style="font-family:'Montserrat-Medium', 'Montserrat';font-weight:500;font-size:36px;">(da<tspan x="426.231px 446.103px " y="273.185px 273.185px ">ys</tspan> in a y<tspan x="568.863px 590.355px 611.883px 626.319px " y="273.185px 273.185px 273.185px 273.185px ">ear)</tspan></text>
        </g>
    </g>
    <g transform="matrix(1.40668,0,0,1.40668,1119.65,-225.557)">
        <text x="-306.697px" y="905.487px" style="font-family:'Montserrat-Bold', 'Montserrat';font-weight:700;font-size:11.374px;">Sour<tspan x="-279.376px " y="905.487px ">c</tspan>e: E<tspan x="-251.805px " y="905.487px ">x</tspan>plorations in E<tspan x="-159.446px " y="905.487px ">c</tspan>onomic Hist<tspan x="-81.27px -73.82px -68.747px " y="905.487px 905.487px 905.487px ">ory</tspan></text>
    </g>
    <g transform="matrix(1.31131,0,0,1.31131,-9.33931,-326.876)">
        <g transform="matrix(0.304791,0,0,0.304791,21.8059,753.327)">
            <g transform="matrix(0.784717,0,0,0.793106,-64.1849,-549.287)">
                <path d="M116.054,1919.86L205.862,1919.86L205.862,1831C175.913,1860.76 146.079,1890.14 116.054,1919.86Z" style="fill:rgb(42,161,183);"/>
            </g>
            <g transform="matrix(0.774384,0,0,0.781381,-62.8377,-529.87)">
                <path d="M115.862,1833.63L115.862,1921L159.944,1877.43L115.862,1833.63Z" style="fill:rgb(243,80,5);"/>
            </g>
        </g>
        <g transform="matrix(1,0,0,1,-69.3695,114.318)">
            <text x="131.565px" y="935.442px" style="font-family:'Montserrat-Medium', 'Montserrat';font-weight:500;font-size:30px;">MAKED<tspan x="248.325px 269.235px 285.795px " y="935.442px 935.442px 935.442px ">ATA</tspan>SHINE<tspan x="404.805px 411.015px 432.255px " y="935.442px 935.442px 935.442px ">.CO</tspan>M</text>
        </g>
    </g>
</svg>
