<?xml version="1.0" encoding="UTF-8" standalone="no"?>
<!DOCTYPE svg PUBLIC "-//W3C//DTD SVG 1.1//EN" "http://www.w3.org/Graphics/SVG/1.1/DTD/svg11.dtd">
<svg width="100%" height="100%" viewBox="0 0 1280 1280" version="1.1" xmlns="http://www.w3.org/2000/svg" xmlns:xlink="http://www.w3.org/1999/xlink" xml:space="preserve" xmlns:serif="http://www.serif.com/" style="fill-rule:evenodd;clip-rule:evenodd;stroke-linecap:round;stroke-linejoin:round;stroke-miterlimit:1.5;">
    <g id="Footer" transform="matrix(1.19918,0,0,1.19918,5.8585,-23.4739)">
        <g transform="matrix(1.40921,0,0,1.40921,1079,-243.029)">
            <text x="-242.008px" y="905.487px" style="font-family:'Montserrat-Bold', 'Montserrat';font-weight:700;font-size:9.468px;">Sourc<tspan x="-213.736px " y="905.487px ">e</tspan></text>
            <text x="-207.762px" y="905.487px" style="font-family:'Montserrat-Medium', 'Montserrat';font-weight:500;font-size:9.468px;">: Analysis of the data f<tspan x="-102.497px -98.728px " y="905.487px 905.487px ">ro</tspan>m</text>
            <text x="-242.008px" y="916.138px" style="font-family:'Montserrat-SemiBold', 'Montserrat';font-weight:600;font-size:9.468px;">&quot;<tspan x="-238.505px " y="916.138px ">A</tspan>ging, Basal Metabolic Rat<tspan x="-107.855px " y="916.138px ">e</tspan>, and Nutrition&quot;</text>
            <text x="-242.008px" y="926.79px" style="font-family:'Montserrat-Medium', 'Montserrat';font-weight:500;font-size:9.468px;">b<tspan x="-235.693px " y="926.79px ">y</tspan> Hir<tspan x="-213.755px " y="926.79px ">o</tspan>shi Shimokata and F<tspan x="-109.825px " y="926.79px ">u</tspan>mio K<tspan x="-75.57px " y="926.79px ">u</tspan>zuy<tspan x="-52.685px -47.279px " y="926.79px 926.79px ">a*</tspan></text>
        </g>
        <g transform="matrix(1.34501,0,0,1.34501,-20.2187,-353.528)">
            <g transform="matrix(0.304791,0,0,0.304791,21.8059,753.327)">
                <g transform="matrix(0.784717,0,0,0.793106,-64.1849,-549.287)">
                    <path d="M116.054,1919.86L205.862,1919.86L205.862,1831C175.913,1860.76 146.079,1890.14 116.054,1919.86Z" style="fill:rgb(42,161,183);"/>
                </g>
                <g transform="matrix(0.774384,0,0,0.781381,-62.8377,-529.87)">
                    <path d="M115.862,1833.63L115.862,1921L159.944,1877.43L115.862,1833.63Z" style="fill:rgb(243,80,5);"/>
                </g>
            </g>
            <g transform="matrix(1,0,0,1,-69.3695,114.318)">
                <text x="131.565px" y="935.442px" style="font-family:'Montserrat-Medium', 'Montserrat';font-weight:500;font-size:30px;">MAKED<tspan x="248.325px 269.235px 285.795px " y="935.442px 935.442px 935.442px ">ATA</tspan>SHINE<tspan x="404.805px 411.015px 432.255px " y="935.442px 935.442px 935.442px ">.CO</tspan>M</text>
            </g>
        </g>
    </g>
    <g transform="matrix(1,0,0,1,424.651,11.2474)">
        <text x="-233.539px" y="56.625px" style="font-family:'Montserrat-Medium', 'Montserrat';font-weight:500;font-size:64px;">Basal O<tspan x="11.517px 44.925px 79.741px " y="56.625px 56.625px 56.625px ">xyg</tspan>en C<tspan x="268.733px " y="56.625px ">o</tspan>nsumption</text>
        <text x="-345.795px" y="120.625px" style="font-family:'Montserrat-Medium', 'Montserrat';font-weight:500;font-size:64px;">b<tspan x="-303.107px " y="120.625px ">y</tspan> Musc<tspan x="-77.507px " y="120.625px ">l</tspan>e an<tspan x="78.781px " y="120.625px ">d</tspan> Non-Musc<tspan x="472.957px " y="120.625px ">l</tspan>e T<tspan x="583.933px " y="120.625px ">i</tspan>ssues</text>
    </g>
    <g transform="matrix(1.27065,0,0,1.41176,-188.716,-160.059)">
        <path d="M281,266.5L281,889" style="fill:none;stroke:black;stroke-width:2.98px;"/>
    </g>
    <g transform="matrix(1.27065,0,0,0.882353,-176.01,-7.05882)">
        <path d="M271,289L1058,289" style="fill:none;stroke:black;stroke-opacity:0.298039;stroke-width:0.91px;"/>
    </g>
    <g transform="matrix(1.27065,0,0,0.882353,-176.01,98.8235)">
        <path d="M271,289L1058,289" style="fill:none;stroke:black;stroke-opacity:0.298039;stroke-width:0.91px;"/>
    </g>
    <g transform="matrix(1.27065,0,0,0.882353,-176.01,204.706)">
        <path d="M271,289L1058,289" style="fill:none;stroke:black;stroke-opacity:0.298039;stroke-width:0.91px;"/>
    </g>
    <g transform="matrix(1.27065,0,0,0.882353,-176.01,310.588)">
        <path d="M271,289L1058,289" style="fill:none;stroke:black;stroke-opacity:0.298039;stroke-width:0.91px;"/>
    </g>
    <g transform="matrix(1.27065,0,0,0.882353,-176.01,416.471)">
        <path d="M271,289L1058,289" style="fill:none;stroke:black;stroke-opacity:0.298039;stroke-width:0.91px;"/>
    </g>
    <g transform="matrix(1.27065,0,0,0.882353,-176.01,522.353)">
        <path d="M271,289L1058,289" style="fill:none;stroke:black;stroke-opacity:0.298039;stroke-width:0.91px;"/>
    </g>
    <g transform="matrix(1.27065,0,0,0.882353,-176.01,628.235)">
        <path d="M271,289L1058,289" style="fill:none;stroke:black;stroke-opacity:0.298039;stroke-width:0.91px;"/>
    </g>
    <g transform="matrix(1.27065,0,0,0.882353,-176.01,734.118)">
        <path d="M271,289L1058,289" style="fill:none;stroke:black;stroke-opacity:0.298039;stroke-width:0.91px;"/>
    </g>
    <g transform="matrix(1.27065,0,0,0.882353,-249.707,310.588)">
        <path d="M1116,889L329,889" style="fill:none;stroke:black;stroke-width:3.66px;"/>
    </g>
    <g transform="matrix(1.27065,0,0,0.915441,-249.707,273.849)">
        <path d="M379,-63L379,897" style="fill:none;stroke:black;stroke-opacity:0.301961;stroke-width:0.9px;"/>
    </g>
    <g transform="matrix(1.27065,0,0,0.915441,-122.642,273.849)">
        <path d="M379,-63L379,897" style="fill:none;stroke:black;stroke-opacity:0.301961;stroke-width:0.9px;"/>
    </g>
    <g transform="matrix(1,0,0,1,410.341,114.737)">
        <text x="106.387px" y="509.849px" style="font-family:'Montserrat-SemiBold', 'Montserrat';font-weight:600;font-size:48px;">Non-musc<tspan x="363.187px " y="509.849px ">l</tspan>e</text>
    </g>
    <g transform="matrix(1.27065,0,0,0.915441,4.4224,273.849)">
        <path d="M379,-63L379,897" style="fill:none;stroke:black;stroke-opacity:0.301961;stroke-width:0.9px;"/>
    </g>
    <g transform="matrix(1.27065,0,0,0.915441,131.487,273.849)">
        <path d="M379,-63L379,897" style="fill:none;stroke:black;stroke-opacity:0.301961;stroke-width:0.9px;"/>
    </g>
    <g transform="matrix(1.27065,0,0,0.915441,258.552,273.849)">
        <path d="M379,-63L379,897" style="fill:none;stroke:black;stroke-opacity:0.301961;stroke-width:0.9px;"/>
    </g>
    <g transform="matrix(1.27065,0,0,0.915441,385.617,273.849)">
        <path d="M379,-63L379,897" style="fill:none;stroke:black;stroke-opacity:0.301961;stroke-width:0.9px;"/>
    </g>
    <g transform="matrix(1.27065,0,0,0.915441,512.682,273.849)">
        <path d="M379,-63L379,897" style="fill:none;stroke:black;stroke-opacity:0.301961;stroke-width:0.9px;"/>
    </g>
    <g transform="matrix(1.27065,0,0,0.915441,639.746,273.849)">
        <path d="M379,-63L379,897" style="fill:none;stroke:black;stroke-opacity:0.301961;stroke-width:0.9px;"/>
    </g>
    <g transform="matrix(1.29469,0,0,0.882353,-258.185,-7.05882)">
        <path d="M378.509,318L476.652,387L574.795,423L672.938,518L771.081,513L869.224,595L967.366,678L1065.51,762" style="fill:none;stroke:rgb(243,80,5);stroke-width:10.83px;"/>
    </g>
    <g transform="matrix(1.29469,0,0,0.882353,-258.82,-7.05882)">
        <path d="M379,733L477.143,666C511.468,655.023 542.685,646.272 575.286,637L673.429,661L771.571,649L869.714,624L967.857,630L1066,618" style="fill:none;stroke:rgb(42,161,183);stroke-width:10.83px;"/>
    </g>
    <g transform="matrix(1,0,0,1,-8.15737,-7.55904)">
        <text x="218.138px" y="1143.16px" style="font-family:'Montserrat-SemiBold', 'Montserrat';font-weight:600;font-size:36px;">2<tspan x="238.982px " y="1143.16px ">0</tspan></text>
    </g>
    <g transform="matrix(1,0,0,1,118.907,-7.55904)">
        <text x="218.084px" y="1143.16px" style="font-family:'Montserrat-SemiBold', 'Montserrat';font-weight:600;font-size:36px;">30</text>
    </g>
    <g transform="matrix(1,0,0,1,245.972,-7.55904)">
        <text x="216.338px" y="1143.16px" style="font-family:'Montserrat-SemiBold', 'Montserrat';font-weight:600;font-size:36px;">40</text>
    </g>
    <g transform="matrix(1,0,0,1,373.037,-7.55904)">
        <text x="218.048px" y="1143.16px" style="font-family:'Montserrat-SemiBold', 'Montserrat';font-weight:600;font-size:36px;">50</text>
    </g>
    <g transform="matrix(1,0,0,1,500.102,-7.55904)">
        <text x="217.274px" y="1143.16px" style="font-family:'Montserrat-SemiBold', 'Montserrat';font-weight:600;font-size:36px;">60</text>
    </g>
    <g transform="matrix(1,0,0,1,627.167,-7.55904)">
        <text x="217.976px" y="1143.16px" style="font-family:'Montserrat-SemiBold', 'Montserrat';font-weight:600;font-size:36px;">7<tspan x="239.144px " y="1143.16px ">0</tspan></text>
    </g>
    <g transform="matrix(1,0,0,1,754.231,-7.55904)">
        <text x="216.824px" y="1143.16px" style="font-family:'Montserrat-SemiBold', 'Montserrat';font-weight:600;font-size:36px;">80</text>
    </g>
    <g transform="matrix(1,0,0,1,881.296,-7.55904)">
        <text x="217.274px" y="1143.16px" style="font-family:'Montserrat-SemiBold', 'Montserrat';font-weight:600;font-size:36px;">90</text>
    </g>
    <g transform="matrix(1,0,0,1,94.6073,6.7801)">
        <text x="15.205px" y="994.938px" style="font-family:'Montserrat-SemiBold', 'Montserrat';font-weight:600;font-size:36px;">2<tspan x="36.049px " y="994.938px ">0</tspan></text>
    </g>
    <g transform="matrix(1,0,0,1,94.6073,-99.1023)">
        <text x="11.605px" y="994.938px" style="font-family:'Montserrat-SemiBold', 'Montserrat';font-weight:600;font-size:36px;">40</text>
    </g>
    <g transform="matrix(1,0,0,1,94.6073,-204.985)">
        <text x="13.477px" y="994.938px" style="font-family:'Montserrat-SemiBold', 'Montserrat';font-weight:600;font-size:36px;">60</text>
    </g>
    <g transform="matrix(1,0,0,1,94.6073,-310.867)">
        <text x="12.577px" y="994.938px" style="font-family:'Montserrat-SemiBold', 'Montserrat';font-weight:600;font-size:36px;">80</text>
    </g>
    <g transform="matrix(1,0,0,1,94.6073,-416.749)">
        <text x="-1.895px" y="994.938px" style="font-family:'Montserrat-SemiBold', 'Montserrat';font-weight:600;font-size:36px;">100</text>
    </g>
    <g transform="matrix(1,0,0,1,94.6073,-522.632)">
        <text x="1.489px" y="994.938px" style="font-family:'Montserrat-SemiBold', 'Montserrat';font-weight:600;font-size:36px;">12<tspan x="36.049px " y="994.938px ">0</tspan></text>
    </g>
    <g transform="matrix(1,0,0,1,94.6073,-628.514)">
        <text x="-2.111px" y="994.938px" style="font-family:'Montserrat-SemiBold', 'Montserrat';font-weight:600;font-size:36px;">140</text>
    </g>
    <g transform="matrix(1,0,0,1,94.6073,-734.396)">
        <text x="-0.239px" y="994.938px" style="font-family:'Montserrat-SemiBold', 'Montserrat';font-weight:600;font-size:36px;">160</text>
    </g>
    <g transform="matrix(1,0,0,1,184.008,25.5052)">
        <text x="-118.548px" y="179.895px" style="font-family:'Montserrat-SemiBold', 'Montserrat';font-weight:600;font-size:36px;">ml/<tspan x="-59.22px " y="179.895px ">m</tspan>in</text>
    </g>
    <g transform="matrix(1,0,0,1,330.918,159.394)">
        <text x="262.632px" y="257.005px" style="font-family:'Montserrat-SemiBold', 'Montserrat';font-weight:600;font-size:48px;">Musc<tspan x="393.528px " y="257.005px ">l</tspan>e</text>
    </g>
    <g transform="matrix(1,0,0,1,-35.5176,-1.24883)">
        <text x="667.548px" y="1173.79px" style="font-family:'Montserrat-SemiBold', 'Montserrat';font-weight:600;font-size:36px;">A<tspan x="694.332px " y="1173.79px ">g</tspan>e</text>
    </g>
    <g transform="matrix(1,0,0,1,12.8534,7.02494)">
        <g transform="matrix(0.911836,0,0,0.967533,65.8417,24.1222)">
            <rect x="295.401" y="742.975" width="720.618" height="284.829" style="fill:white;stroke:black;stroke-width:2.13px;"/>
        </g>
        <g transform="matrix(1,0,0,1,-65.5048,-27.3529)">
            <text x="422.466px" y="812.573px" style="font-family:'Montserrat-Bold', 'Montserrat';font-weight:700;font-size:30px;">O<tspan x="447.306px 464.256px 481.746px " y="812.573px 812.573px 812.573px ">xyg</tspan>en <tspan x="554.949px 572.469px " y="812.573px 812.573px ">co</tspan>nsumption</text>
            <text x="775.942px" y="812.573px" style="font-family:'Montserrat-Medium', 'Montserrat';font-weight:500;font-size:30px;"><tspan x="775.942px " y="812.573px ">i</tspan>s <tspan x="811.264px " y="812.573px ">t</tspan>he <tspan x="874.487px " y="812.573px ">a</tspan>mount <tspan x="1008.36px " y="812.573px ">o</tspan>f</text>
            <text x="422.466px" y="842.573px" style="font-family:'Montserrat-Medium', 'Montserrat';font-weight:500;font-size:30px;">o<tspan x="440.976px 456.636px 472.956px " y="842.573px 842.573px 842.573px ">xyg</tspan>en <tspan x="544.055px 560.945px " y="842.573px 842.573px ">co</tspan>nsumed <tspan x="717.994px 738.004px 754.774px 766.383px " y="842.573px 842.573px 842.573px 842.573px ">by t</tspan>he <tspan x="829.292px " y="842.573px ">t</tspan>issues <tspan x="945.451px " y="842.573px ">o</tspan>f <tspan x="986.7px " y="842.573px ">t</tspan>he</text>
            <text x="422.466px" y="872.573px" style="font-family:'Montserrat-Medium', 'Montserrat';font-weight:500;font-size:30px;">body<tspan x="498.216px 505.026px 520.6px " y="872.573px 872.573px 872.573px ">, u</tspan>sually <tspan x="643.275px 675.075px 692.985px " y="872.573px 872.573px 872.573px ">mea</tspan>sur<tspan x="758.205px " y="872.573px ">e</tspan>d <tspan x="812.6px " y="872.573px ">a</tspan>s <tspan x="861.145px " y="872.573px ">t</tspan>he <tspan x="928.02px 946.53px 962.19px 978.51px " y="872.573px 872.573px 872.573px 872.573px ">oxyg</tspan>en</text>
            <text x="422.466px" y="902.573px" style="font-family:'Montserrat-Medium', 'Montserrat';font-weight:500;font-size:30px;">uptak<tspan x="511.416px " y="902.573px ">e</tspan> in the lun<tspan x="683.286px " y="902.573px ">g</tspan>.</text>
            <text x="422.466px" y="944.573px" style="font-family:'Montserrat-Bold', 'Montserrat';font-weight:700;font-size:30px;">Basal <tspan x="521.758px 553.408px " y="944.573px 944.573px ">me</tspan>tabolic <tspan x="694.401px 707.121px 725.631px 738.171px " y="944.573px 944.573px 944.573px 944.573px ">rate</tspan></text>
            <text x="770.753px" y="944.573px" style="font-family:'Montserrat-Medium', 'Montserrat';font-weight:500;font-size:30px;"><tspan x="770.753px " y="944.573px ">i</tspan>s <tspan x="807.806px " y="944.573px ">t</tspan>he <tspan x="872.758px " y="944.573px ">a</tspan>mount <tspan x="1008.36px " y="944.573px ">o</tspan>f</text>
            <text x="422.466px" y="974.573px" style="font-family:'Montserrat-Medium', 'Montserrat';font-weight:500;font-size:30px;">ener<tspan x="491.646px " y="974.573px ">g</tspan>y <tspan x="537.648px " y="974.573px ">t</tspan>hat <tspan x="609.39px " y="974.573px ">m</tspan>ust <tspan x="697.392px " y="974.573px ">b</tspan>e <tspan x="744.744px " y="974.573px ">u</tspan>sed <tspan x="827.436px 839.316px 858.366px 866.898px " y="974.573px 974.573px 974.573px 974.573px ">to s</tspan>imply <tspan x="976.14px " y="974.573px ">s</tspan>ta<tspan x="1021.23px " y="974.573px ">y</tspan></text>
            <text x="422.466px" y="1004.57px" style="font-family:'Montserrat-Medium', 'Montserrat';font-weight:500;font-size:30px;">aliv<tspan x="473.466px 491.826px 513.5px " y="1004.57px 1004.57px 1004.57px ">e i</tspan>n <tspan x="563.974px " y="1004.57px ">t</tspan>he <tspan x="636.948px " y="1004.57px ">a</tspan>bsenc<tspan x="746.148px 764.508px 786.182px " y="1004.57px 1004.57px 1004.57px ">e o</tspan>f <tspan x="837.496px 855.436px 875.566px 892.336px 914.01px 934.47px 954.6px 971.16px " y="1004.57px 1004.57px 1004.57px 1004.57px 1004.57px 1004.57px 1004.57px 1004.57px ">any phys</tspan>ical</text>
            <text x="422.466px" y="1034.57px" style="font-family:'Montserrat-Medium', 'Montserrat';font-weight:500;font-size:30px;">ac<tspan x="457.836px " y="1034.57px ">t</tspan>ivit<tspan x="515.886px 531.666px " y="1034.57px 1034.57px ">y.</tspan></text>
        </g>
    </g>
</svg>
