<?xml version="1.0" encoding="UTF-8" standalone="no"?>
<!DOCTYPE svg PUBLIC "-//W3C//DTD SVG 1.1//EN" "http://www.w3.org/Graphics/SVG/1.1/DTD/svg11.dtd">
<svg width="100%" height="100%" viewBox="0 0 1280 1280" version="1.1" xmlns="http://www.w3.org/2000/svg" xmlns:xlink="http://www.w3.org/1999/xlink" xml:space="preserve" xmlns:serif="http://www.serif.com/" style="fill-rule:evenodd;clip-rule:evenodd;stroke-linejoin:round;stroke-miterlimit:1.41421;">
    <g id="Footer" transform="matrix(1.19918,0,0,1.19918,5.8585,-23.4739)">
        <g transform="matrix(1.40921,0,0,1.40921,1125.39,-226.112)">
            <text x="-324.424px" y="905.487px" style="font-family:'Montserrat-Bold', 'Montserrat';font-weight:700;font-size:17.753px;">Sour<tspan x="-281.783px -271.415px " y="905.487px 905.487px ">ce</tspan></text>
            <text x="-260.213px" y="905.487px" style="font-family:'Montserrat-Medium', 'Montserrat';font-weight:500;font-size:17.753px;">: W<tspan x="-232.395px -221.531px -210.56px " y="905.487px 905.487px 905.487px ">eFo</tspan>rum, IMF W<tspan x="-94.192px " y="905.487px ">E</tspan>O</text>
        </g>
        <g transform="matrix(1.34501,0,0,1.34501,-11.8797,-358.649)">
            <g transform="matrix(0.304791,0,0,0.304791,21.8059,753.327)">
                <g transform="matrix(0.784717,0,0,0.793106,-64.1849,-549.287)">
                    <path d="M116.054,1919.86L205.862,1919.86L205.862,1831C175.913,1860.76 146.079,1890.14 116.054,1919.86Z" style="fill:rgb(42,161,183);"/>
                </g>
                <g transform="matrix(0.774384,0,0,0.781381,-62.8377,-529.87)">
                    <path d="M115.862,1833.63L115.862,1921L159.944,1877.43L115.862,1833.63Z" style="fill:rgb(243,80,5);"/>
                </g>
            </g>
            <g transform="matrix(1,0,0,1,-69.3695,114.318)">
                <text x="131.565px" y="935.442px" style="font-family:'Montserrat-Medium', 'Montserrat';font-weight:500;font-size:30px;">MAKED<tspan x="248.325px 269.235px 285.795px " y="935.442px 935.442px 935.442px ">ATA</tspan>SHINE<tspan x="404.805px 411.015px 432.255px " y="935.442px 935.442px 935.442px ">.CO</tspan>M</text>
            </g>
        </g>
    </g>
    <g id="Title" transform="matrix(1,0,0,1,422.083,31.8234)">
        <text x="-227.523px" y="56.625px" style="font-family:'Montserrat-Medium', 'Montserrat';font-weight:500;font-size:64px;">P<tspan x="-182.083px -142.915px -117.443px -81.411px " y="56.625px 56.625px 56.625px 56.625px ">erce</tspan>nt of W<tspan x="194.045px 234.685px 260.477px " y="56.625px 56.625px 56.625px ">orl</tspan>d T<tspan x="373.245px " y="56.625px ">o</tspan>tal GDP</text>
        <text x="23.261px" y="120.625px" style="font-family:'Montserrat-Medium', 'Montserrat';font-weight:500;font-size:64px;">1990 v<tspan x="221.149px " y="120.625px ">s</tspan> 2<tspan x="306.973px 349.469px " y="120.625px 120.625px ">01</tspan>7</text>
    </g>
    <g transform="matrix(1,0,0,1,-1.13687e-13,-5)">
        <g transform="matrix(1.44058,0,0,1.69972,-77.9822,-182.017)">
            <path d="M290.25,241C175.237,241 82,320.022 82,417.5C82,419.348 82.034,421.197 82.103,423.044L290.25,417.5L290.25,241Z" style="fill:rgb(42,161,183);"/>
        </g>
        <g transform="matrix(1.44058,0,0,1.69972,-77.9822,-182.017)">
            <path d="M82.103,423.044C82.336,429.327 82.964,435.594 83.986,441.82L290.25,417.5L82.103,423.044Z" style="fill:rgb(243,80,5);"/>
        </g>
        <g transform="matrix(1.44058,0,0,1.69972,-77.9822,-182.017)">
            <path d="M83.976,441.759C98.264,529.027 186.297,594 290.25,594C328.409,594 365.835,585.114 398.44,568.312L290.25,417.5L83.976,441.759Z" style="fill:rgb(124,160,88);"/>
        </g>
        <g transform="matrix(1.44058,0,0,1.69972,-77.9822,-182.017)">
            <path d="M398.44,568.312C460.572,536.295 498.5,479.129 498.5,417.5C498.5,320.022 405.263,241 290.25,241L290.25,417.5L398.44,568.312Z" style="fill:rgb(168,176,179);"/>
        </g>
    </g>
    <g transform="matrix(1,0,0,1,-1.13687e-13,-5)">
        <g transform="matrix(1.44058,0,0,1.69972,521.728,131.068)">
            <path d="M290.25,241C178.798,241 87.102,315.371 82.201,409.74L290.25,417.5L290.25,241Z" style="fill:rgb(42,161,183);"/>
        </g>
        <g transform="matrix(1.44058,0,0,1.69972,521.728,131.068)">
            <path d="M82.198,409.801C82.066,412.366 82,414.933 82,417.5C82,471.29 110.942,522.145 160.611,555.63L290.25,417.5L82.198,409.801Z" style="fill:rgb(243,80,5);"/>
        </g>
        <g transform="matrix(1.44058,0,0,1.69972,521.728,131.068)">
            <path d="M160.611,555.63C197.463,580.474 243.162,594 290.25,594C338.736,594 385.702,579.661 423.05,553.456L290.25,417.5L160.611,555.63Z" style="fill:rgb(124,160,88);"/>
        </g>
        <g transform="matrix(1.44058,0,0,1.69972,521.728,131.068)">
            <path d="M422.994,553.496C470.816,519.965 498.5,470.103 498.5,417.5C498.5,320.022 405.263,241 290.25,241L290.25,417.5L422.994,553.496Z" style="fill:rgb(168,176,179);"/>
        </g>
    </g>
    <g transform="matrix(1,0,0,1,92.8956,-26.7289)">
        <text x="174.545px" y="925.775px" style="font-family:'Montserrat-SemiBold', 'Montserrat';font-weight:600;font-size:64px;">1990</text>
    </g>
    <g transform="matrix(1,0,0,1,-20.6406,60.3572)">
        <text x="889.84px" y="439.786px" style="font-family:'Montserrat-SemiBold', 'Montserrat';font-weight:600;font-size:64px;">2<tspan x="926.896px 969.648px " y="439.786px 439.786px ">01</tspan>7</text>
    </g>
    <g transform="matrix(1,0,0,1,8.14815,11.0144)">
        <text x="176.808px" y="391.872px" style="font-family:'Montserrat-SemiBold', 'Montserrat';font-weight:600;font-size:48px;">US</text>
        <text x="141.912px" y="439.872px" style="font-family:'Montserrat-SemiBold', 'Montserrat';font-weight:600;font-size:48px;">25.<tspan x="210.072px 238.488px " y="439.872px 439.872px ">2%</tspan></text>
    </g>
    <g transform="matrix(1,0,0,1,596.787,321.928)">
        <text x="176.808px" y="391.872px" style="font-family:'Montserrat-SemiBold', 'Montserrat';font-weight:600;font-size:48px;">US</text>
        <text x="139.992px" y="439.872px" style="font-family:'Montserrat-SemiBold', 'Montserrat';font-weight:600;font-size:48px;">2<tspan x="167.208px 200.76px 212.952px 240.408px " y="439.872px 439.872px 439.872px 439.872px ">4.3%</tspan></text>
    </g>
    <g transform="matrix(1,0,0,1,560.965,507.175)">
        <text x="139.008px" y="391.872px" style="font-family:'Montserrat-SemiBold', 'Montserrat';font-weight:600;font-size:48px;">China</text>
        <text x="145.32px" y="439.872px" style="font-family:'Montserrat-SemiBold', 'Montserrat';font-weight:600;font-size:48px;">15.<tspan x="202.776px " y="439.872px ">0</tspan>%</text>
    </g>
    <g transform="matrix(1,0,0,1,722.447,616.621)">
        <text x="175.824px" y="391.872px" style="font-family:'Montserrat-SemiBold', 'Montserrat';font-weight:600;font-size:48px;">EU</text>
        <text x="146.88px" y="439.872px" style="font-family:'Montserrat-SemiBold', 'Montserrat';font-weight:600;font-size:48px;">21.<tspan x="204.096px 233.52px " y="439.872px 439.872px ">7%</tspan></text>
    </g>
    <g transform="matrix(1,0,0,1,57.5627,280.648)">
        <text x="175.824px" y="391.872px" style="font-family:'Montserrat-SemiBold', 'Montserrat';font-weight:600;font-size:48px;">EU</text>
        <text x="147.456px" y="439.872px" style="font-family:'Montserrat-SemiBold', 'Montserrat';font-weight:600;font-size:48px;">31.5<tspan x="232.944px " y="439.872px ">%</tspan></text>
    </g>
    <g transform="matrix(1,0,0,1,42.4931,-0.000165267)">
        <text x="1.3px" y="547.844px" style="font-family:'Montserrat-SemiBold', 'Montserrat';font-weight:600;font-size:20px;">China 1.<tspan x="78.88px 91.14px " y="547.844px 547.844px ">7%</tspan></text>
    </g>
</svg>
