<?xml version="1.0" encoding="UTF-8" standalone="no"?>
<!DOCTYPE svg PUBLIC "-//W3C//DTD SVG 1.1//EN" "http://www.w3.org/Graphics/SVG/1.1/DTD/svg11.dtd">
<svg width="100%" height="100%" viewBox="0 0 1280 1280" version="1.1" xmlns="http://www.w3.org/2000/svg" xmlns:xlink="http://www.w3.org/1999/xlink" xml:space="preserve" xmlns:serif="http://www.serif.com/" style="fill-rule:evenodd;clip-rule:evenodd;stroke-linejoin:round;stroke-miterlimit:1.41421;">
    <g>
        <g transform="matrix(1,0,0,1,155.738,132.309)">
            <text x="417.866px" y="139.166px" style="font-family:'Montserrat-SemiBold', 'Montserrat';font-weight:600;font-size:36px;">Me<tspan x="474.098px " y="139.166px ">x</tspan>ic<tspan x="525.758px " y="139.166px ">o</tspan></text>
        </g>
        <g transform="matrix(1,0,0,1,155.738,212.309)">
            <text x="429.548px" y="139.166px" style="font-family:'Montserrat-SemiBold', 'Montserrat';font-weight:600;font-size:36px;">China</text>
        </g>
        <g transform="matrix(1,0,0,1,155.738,292.309)">
            <text x="436.766px" y="139.166px" style="font-family:'Montserrat-SemiBold', 'Montserrat';font-weight:600;font-size:36px;">In<tspan x="473.09px " y="139.166px ">d</tspan>ia</text>
        </g>
        <g transform="matrix(1,0,0,1,155.738,372.309)">
            <text x="431.402px" y="139.166px" style="font-family:'Montserrat-SemiBold', 'Montserrat';font-weight:600;font-size:36px;">Br<tspan x="473.63px " y="139.166px ">a</tspan>zil</text>
        </g>
        <g transform="matrix(1,0,0,1,155.738,452.309)">
            <text x="443.516px" y="139.166px" style="font-family:'Montserrat-SemiBold', 'Montserrat';font-weight:600;font-size:36px;">Italy</text>
        </g>
        <g transform="matrix(1,0,0,1,156.488,517.264)">
            <text x="420.818px" y="139.166px" style="font-family:'Montserrat-SemiBold', 'Montserrat';font-weight:600;font-size:36px;">Unit<tspan x="498.902px " y="139.166px ">e</tspan>d</text>
            <text x="425.768px" y="175.166px" style="font-family:'Montserrat-SemiBold', 'Montserrat';font-weight:600;font-size:36px;">Stat<tspan x="500.144px " y="175.166px ">e</tspan>s</text>
        </g>
        <g transform="matrix(1,0,0,1,156.338,594.399)">
            <text x="420.818px" y="139.166px" style="font-family:'Montserrat-SemiBold', 'Montserrat';font-weight:600;font-size:36px;">Unit<tspan x="498.902px " y="139.166px ">e</tspan>d</text>
            <text x="397.436px" y="175.166px" style="font-family:'Montserrat-SemiBold', 'Montserrat';font-weight:600;font-size:36px;">K<tspan x="423.32px 433.724px 458.564px " y="175.166px 175.166px 175.166px ">ing</tspan>dom</text>
        </g>
        <g transform="matrix(1,0,0,1,155.738,692.309)">
            <text x="419.864px" y="139.166px" style="font-family:'Montserrat-SemiBold', 'Montserrat';font-weight:600;font-size:36px;">F<tspan x="442.436px 457.268px 479.12px 503.96px 524.588px " y="139.166px 139.166px 139.166px 139.166px 139.166px ">rance</tspan></text>
        </g>
        <g transform="matrix(1,0,0,1,155.738,772.309)">
            <text x="427.532px" y="139.166px" style="font-family:'Montserrat-SemiBold', 'Montserrat';font-weight:600;font-size:36px;">Jap<tspan x="492.8px " y="139.166px ">a</tspan>n</text>
        </g>
        <g transform="matrix(1,0,0,1,155.738,852.309)">
            <text x="398.426px" y="139.166px" style="font-family:'Montserrat-SemiBold', 'Montserrat';font-weight:600;font-size:36px;">Ger<tspan x="463.55px " y="139.166px ">m</tspan>an<tspan x="547.61px " y="139.166px ">y</tspan></text>
        </g>
        <g transform="matrix(1,0,0,1,155.738,932.309)">
            <text x="423.338px" y="139.166px" style="font-family:'Montserrat-SemiBold', 'Montserrat';font-weight:600;font-size:36px;">Russia</text>
        </g>
        <g transform="matrix(1,0,0,1,157.208,996.859)">
            <text x="428.27px" y="139.166px" style="font-family:'Montserrat-SemiBold', 'Montserrat';font-weight:600;font-size:36px;">South</text>
            <text x="429.872px" y="175.166px" style="font-family:'Montserrat-SemiBold', 'Montserrat';font-weight:600;font-size:36px;">K<tspan x="455.288px 478.508px 493.268px 515.12px " y="175.166px 175.166px 175.166px 175.166px ">orea</tspan></text>
        </g>
    </g>
    <g transform="matrix(1,0,0,1,-5,0)">
        <g transform="matrix(1.08096,0,0,1.12233,-25.0722,-73.0303)">
            <rect x="75" y="270" width="457" height="53.46" style="fill:rgb(42,161,183);"/>
        </g>
        <g transform="matrix(0.995624,0,0,1.12233,20.3282,6.9697)">
            <rect x="75" y="270" width="457" height="53.46" style="fill:rgb(42,161,183);"/>
        </g>
        <g transform="matrix(0.9814,0,0,1.12233,27.895,86.9697)">
            <rect x="75" y="270" width="457" height="53.46" style="fill:rgb(42,161,183);"/>
        </g>
        <g transform="matrix(0.910284,0,0,1.12233,65.7287,166.97)">
            <rect x="75" y="270" width="457" height="53.46" style="fill:rgb(42,161,183);"/>
        </g>
        <g transform="matrix(0.810722,0,0,1.12233,118.696,246.97)">
            <rect x="75" y="270" width="457" height="53.46" style="fill:rgb(42,161,183);"/>
        </g>
        <g transform="matrix(0.725383,0,0,1.12233,164.096,326.97)">
            <rect x="75" y="270" width="457" height="53.46" style="fill:rgb(42,161,183);"/>
        </g>
        <g transform="matrix(0.654267,0,0,1.12233,201.93,406.97)">
            <rect x="75" y="270" width="457" height="53.46" style="fill:rgb(42,161,183);"/>
        </g>
        <g transform="matrix(0.654267,0,0,1.12233,201.93,486.97)">
            <rect x="75" y="270" width="457" height="53.46" style="fill:rgb(42,161,183);"/>
        </g>
        <g transform="matrix(0.611597,0,0,1.12233,224.63,566.97)">
            <rect x="75" y="270" width="457" height="53.46" style="fill:rgb(42,161,183);"/>
        </g>
        <g transform="matrix(0.597374,0,0,1.12233,232.197,646.97)">
            <rect x="75" y="270" width="457" height="53.46" style="fill:rgb(42,161,183);"/>
        </g>
        <g transform="matrix(0.540481,0,0,1.12233,262.464,726.97)">
            <rect x="75" y="270" width="457" height="53.46" style="fill:rgb(42,161,183);"/>
        </g>
        <g transform="matrix(0.469365,0,0,1.12233,300.298,806.97)">
            <rect x="75" y="270" width="457" height="53.46" style="fill:rgb(42,161,183);"/>
        </g>
    </g>
    <g transform="matrix(1,0,0,1,5,0)">
        <g transform="matrix(0.455142,0,0,1.12233,695.864,-73.0303)">
            <rect x="75" y="270" width="457" height="53.46" style="fill:rgb(243,80,5);"/>
        </g>
        <g transform="matrix(1.12363,0,0,1.12233,645.728,7.0147)">
            <rect x="75" y="270" width="457" height="53.46" style="fill:rgb(243,80,5);"/>
        </g>
        <g transform="matrix(0.924508,0,0,1.12233,660.662,86.9697)">
            <rect x="75" y="270" width="457" height="53.46" style="fill:rgb(243,80,5);"/>
        </g>
        <g transform="matrix(0.298687,0,0,1.12233,707.598,166.97)">
            <rect x="75" y="270" width="457" height="53.46" style="fill:rgb(243,80,5);"/>
        </g>
        <g transform="matrix(0.426696,0,0,1.12233,697.998,246.97)">
            <rect x="75" y="270" width="457" height="53.46" style="fill:rgb(243,80,5);"/>
        </g>
        <g transform="matrix(0.554705,0,0,1.12233,688.397,326.97)">
            <rect x="75" y="270" width="457" height="53.46" style="fill:rgb(243,80,5);"/>
        </g>
        <g transform="matrix(0.512035,0,0,1.12233,691.597,406.97)">
            <rect x="75" y="270" width="457" height="53.46" style="fill:rgb(243,80,5);"/>
        </g>
        <g transform="matrix(0.341357,0,0,1.12233,704.398,486.97)">
            <rect x="75" y="270" width="457" height="53.46" style="fill:rgb(243,80,5);"/>
        </g>
        <g transform="matrix(0.554705,0,0,1.12233,688.397,566.97)">
            <rect x="75" y="270" width="457" height="53.46" style="fill:rgb(243,80,5);"/>
        </g>
        <g transform="matrix(0.554705,0,0,1.12233,688.397,646.97)">
            <rect x="75" y="270" width="457" height="53.46" style="fill:rgb(243,80,5);"/>
        </g>
        <g transform="matrix(0.753829,0,0,1.12233,673.463,726.97)">
            <rect x="75" y="270" width="457" height="53.46" style="fill:rgb(243,80,5);"/>
        </g>
        <g transform="matrix(0.497812,0,0,1.12233,692.664,806.97)">
            <rect x="75" y="270" width="457" height="53.46" style="fill:rgb(243,80,5);"/>
        </g>
    </g>
    <g transform="matrix(1,0,0,1,457.85,29.1577)">
        <text x="-297.946px" y="38.741px" style="font-family:'Montserrat-SemiBold', 'Montserrat';font-weight:600;font-size:64px;">Ho<tspan x="-205.786px " y="38.741px ">w</tspan> Glob<tspan x="23.334px " y="38.741px ">a</tspan>l T<tspan x="136.038px " y="38.741px ">r</tspan>ust in Busin<tspan x="552.166px " y="38.741px ">e</tspan>ss</text>
        <text x="-246.17px" y="102.741px" style="font-family:'Montserrat-SemiBold', 'Montserrat';font-weight:600;font-size:64px;">C<tspan x="-200.922px " y="102.741px ">o</tspan>mp<tspan x="-48.794px -9.946px 16.294px " y="102.741px 102.741px 102.741px ">are</tspan>s t<tspan x="132.71px " y="102.741px ">o</tspan> Go<tspan x="281.382px 317.414px 357.222px 383.782px 427.622px 495.334px " y="102.741px 102.741px 102.741px 102.741px 102.741px 102.741px ">vernme</tspan>nt</text>
    </g>
    <g id="Footer" transform="matrix(1.19918,0,0,1.19918,6.01642,-21.1298)">
        <g transform="matrix(1.40921,0,0,1.40921,1125.57,-220.858)">
            <text x="-203.129px" y="905.487px" style="font-family:'Montserrat-SemiBold', 'Montserrat';font-weight:600;font-size:17.061px;">Sour<tspan x="-162.778px -153.002px " y="905.487px 905.487px ">ce</tspan>:  Statista</text>
        </g>
        <g transform="matrix(1.34501,0,0,1.34501,-20.3504,-352.265)">
            <g transform="matrix(0.304791,0,0,0.304791,21.8059,753.327)">
                <g transform="matrix(0.784717,0,0,0.793106,-64.1849,-549.287)">
                    <path d="M116.054,1919.86L205.862,1919.86L205.862,1831C175.913,1860.76 146.079,1890.14 116.054,1919.86Z" style="fill:rgb(42,161,183);"/>
                </g>
                <g transform="matrix(0.774384,0,0,0.781381,-62.8377,-529.87)">
                    <path d="M115.862,1833.63L115.862,1921L159.944,1877.43L115.862,1833.63Z" style="fill:rgb(243,80,5);"/>
                </g>
            </g>
            <g transform="matrix(1,0,0,1,-69.3695,114.318)">
                <text x="131.565px" y="935.442px" style="font-family:'Montserrat-Medium', 'Montserrat';font-weight:500;font-size:30px;">MAKED<tspan x="248.325px 269.235px 285.795px " y="935.442px 935.442px 935.442px ">ATA</tspan>SHINE<tspan x="404.805px 411.015px 432.255px " y="935.442px 935.442px 935.442px ">.CO</tspan>M</text>
            </g>
        </g>
    </g>
    <g transform="matrix(1,0,0,1,143.256,43.8268)">
        <text x="182.732px" y="160.107px" style="font-family:'Montserrat-SemiBold', 'Montserrat';font-weight:600;font-size:48px;">Busin<tspan x="323.66px " y="160.107px ">e</tspan>ss</text>
    </g>
    <g transform="matrix(1,0,0,1,30.4568,-7.69529)">
        <text x="702.431px" y="208.653px" style="font-family:'Montserrat-SemiBold', 'Montserrat';font-weight:600;font-size:48px;">Go<tspan x="769.727px 796.751px 826.607px 846.527px 897.311px " y="208.653px 208.653px 208.653px 208.653px 208.653px ">verme</tspan>nt</text>
    </g>
    <g transform="matrix(1,0,0,1,5,0)">
        <g transform="matrix(1,0,0,1,337.206,17.1286)">
            <text x="402.738px" y="259.671px" style="font-family:'Montserrat-SemiBold', 'Montserrat';font-weight:600;font-size:48px;">3<tspan x="430.434px 458.85px " y="259.671px 259.671px ">2%</tspan></text>
        </g>
        <g transform="matrix(1,0,0,1,337.206,97.1736)">
            <text x="402.738px" y="259.671px" style="font-family:'Montserrat-SemiBold', 'Montserrat';font-weight:600;font-size:48px;">79%</text>
        </g>
        <g transform="matrix(1,0,0,1,337.206,177.219)">
            <text x="402.738px" y="259.671px" style="font-family:'Montserrat-SemiBold', 'Montserrat';font-weight:600;font-size:48px;">65<tspan x="460.386px " y="259.671px ">%</tspan></text>
        </g>
        <g transform="matrix(1,0,0,1,337.206,257.264)">
            <text x="402.738px" y="259.671px" style="font-family:'Montserrat-SemiBold', 'Montserrat';font-weight:600;font-size:48px;">21%</text>
        </g>
        <g transform="matrix(1,0,0,1,337.206,337.309)">
            <text x="402.738px" y="259.671px" style="font-family:'Montserrat-SemiBold', 'Montserrat';font-weight:600;font-size:48px;">30%</text>
        </g>
        <g transform="matrix(1,0,0,1,337.206,417.354)">
            <text x="402.738px" y="259.671px" style="font-family:'Montserrat-SemiBold', 'Montserrat';font-weight:600;font-size:48px;">39%</text>
        </g>
        <g transform="matrix(1,0,0,1,337.206,497.399)">
            <text x="402.738px" y="259.671px" style="font-family:'Montserrat-SemiBold', 'Montserrat';font-weight:600;font-size:48px;">36<tspan x="459.81px " y="259.671px ">%</tspan></text>
        </g>
        <g transform="matrix(1,0,0,1,337.206,577.444)">
            <text x="402.738px" y="259.671px" style="font-family:'Montserrat-SemiBold', 'Montserrat';font-weight:600;font-size:48px;">2<tspan x="429.954px 461.106px " y="259.671px 259.671px ">4%</tspan></text>
        </g>
        <g transform="matrix(1,0,0,1,337.206,657.489)">
            <text x="402.738px" y="259.671px" style="font-family:'Montserrat-SemiBold', 'Montserrat';font-weight:600;font-size:48px;">39%</text>
        </g>
        <g transform="matrix(1,0,0,1,337.206,737.534)">
            <text x="402.738px" y="259.671px" style="font-family:'Montserrat-SemiBold', 'Montserrat';font-weight:600;font-size:48px;">39%</text>
        </g>
        <g transform="matrix(1,0,0,1,337.206,817.579)">
            <text x="402.738px" y="259.671px" style="font-family:'Montserrat-SemiBold', 'Montserrat';font-weight:600;font-size:48px;">5<tspan x="430.53px 457.986px " y="259.671px 259.671px ">3%</tspan></text>
        </g>
        <g transform="matrix(1,0,0,1,337.206,897.624)">
            <text x="402.738px" y="259.671px" style="font-family:'Montserrat-SemiBold', 'Montserrat';font-weight:600;font-size:48px;">3<tspan x="430.194px 457.746px " y="259.671px 259.671px ">5%</tspan></text>
        </g>
    </g>
    <g transform="matrix(1,0,0,1,-5,0)">
        <g transform="matrix(1,0,0,1,38.6498,17.1286)">
            <text x="402.738px" y="259.671px" style="font-family:'Montserrat-SemiBold', 'Montserrat';font-weight:600;font-size:48px;">7<tspan x="430.962px 460.098px " y="259.671px 259.671px ">6%</tspan></text>
        </g>
        <g transform="matrix(1,0,0,1,38.6498,97.1736)">
            <text x="399.57px" y="259.671px" style="font-family:'Montserrat-SemiBold', 'Montserrat';font-weight:600;font-size:48px;">7<tspan x="427.794px " y="259.671px ">0</tspan>%</text>
        </g>
        <g transform="matrix(1,0,0,1,38.6498,177.219)">
            <text x="399.906px" y="259.671px" style="font-family:'Montserrat-SemiBold', 'Montserrat';font-weight:600;font-size:48px;">69%</text>
        </g>
        <g transform="matrix(1,0,0,1,38.6498,257.264)">
            <text x="398.85px" y="259.671px" style="font-family:'Montserrat-SemiBold', 'Montserrat';font-weight:600;font-size:48px;">64<tspan x="460.098px " y="259.671px ">%</tspan></text>
        </g>
        <g transform="matrix(1,0,0,1,38.6498,337.129)">
            <text x="403.266px" y="259.671px" style="font-family:'Montserrat-SemiBold', 'Montserrat';font-weight:600;font-size:48px;">5<tspan x="430.674px 460.098px " y="259.671px 259.671px ">7%</tspan></text>
        </g>
        <g transform="matrix(1,0,0,1,38.6678,417.129)">
            <text x="413.778px" y="259.671px" style="font-family:'Montserrat-SemiBold', 'Montserrat';font-weight:600;font-size:48px;">51%</text>
        </g>
        <g transform="matrix(1,0,0,1,38.6858,497.129)">
            <text x="398.37px" y="259.671px" style="font-family:'Montserrat-SemiBold', 'Montserrat';font-weight:600;font-size:48px;">46<tspan x="460.098px " y="259.671px ">%</tspan></text>
        </g>
        <g transform="matrix(1,0,0,1,38.7038,577.129)">
            <text x="398.37px" y="259.671px" style="font-family:'Montserrat-SemiBold', 'Montserrat';font-weight:600;font-size:48px;">46<tspan x="460.098px " y="259.671px ">%</tspan></text>
        </g>
        <g transform="matrix(1,0,0,1,38.7218,657.129)">
            <text x="400.53px" y="259.671px" style="font-family:'Montserrat-SemiBold', 'Montserrat';font-weight:600;font-size:48px;">4<tspan x="432.642px 460.098px " y="259.671px 259.671px ">3%</tspan></text>
        </g>
        <g transform="matrix(1,0,0,1,38.7398,737.129)">
            <text x="399.234px" y="259.671px" style="font-family:'Montserrat-SemiBold', 'Montserrat';font-weight:600;font-size:48px;">4<tspan x="431.682px 460.098px " y="259.671px 259.671px ">2%</tspan></text>
        </g>
        <g transform="matrix(1,0,0,1,38.7578,817.129)">
            <text x="401.346px" y="259.671px" style="font-family:'Montserrat-SemiBold', 'Montserrat';font-weight:600;font-size:48px;">38<tspan x="460.098px " y="259.671px ">%</tspan></text>
        </g>
        <g transform="matrix(1,0,0,1,38.7758,897.129)">
            <text x="404.946px" y="259.671px" style="font-family:'Montserrat-SemiBold', 'Montserrat';font-weight:600;font-size:48px;">3<tspan x="432.642px 460.098px " y="259.671px 259.671px ">3%</tspan></text>
        </g>
    </g>
</svg>
