<?xml version="1.0" encoding="UTF-8" standalone="no"?>
<!DOCTYPE svg PUBLIC "-//W3C//DTD SVG 1.1//EN" "http://www.w3.org/Graphics/SVG/1.1/DTD/svg11.dtd">
<svg width="100%" height="100%" viewBox="0 0 1280 1280" version="1.1" xmlns="http://www.w3.org/2000/svg" xmlns:xlink="http://www.w3.org/1999/xlink" xml:space="preserve" xmlns:serif="http://www.serif.com/" style="fill-rule:evenodd;clip-rule:evenodd;stroke-linejoin:round;stroke-miterlimit:1.41421;">
    <g id="Footer" transform="matrix(1.19918,0,0,1.19918,5.8585,-23.4739)">
        <g transform="matrix(1.40921,0,0,1.40921,1124.92,-243.39)">
            <text x="-180.203px" y="905.487px" style="font-family:'Montserrat-Bold', 'Montserrat';font-weight:700;font-size:11.835px;">Sour<tspan x="-151.775px " y="905.487px ">c</tspan>e</text>
            <text x="-137.395px" y="905.487px" style="font-family:'Montserrat-Medium', 'Montserrat';font-weight:500;font-size:11.835px;">: Br<tspan x="-117.856px " y="905.487px ">o</tspan>okings,</text>
            <text x="-283.144px" y="918.078px" style="font-family:'Montserrat-Medium', 'Montserrat';font-weight:500;font-size:11.835px;">E<tspan x="-275.321px " y="918.078px ">v</tspan>idence Spe<tspan x="-202.417px -195.34px -188.251px " y="918.078px 918.078px 918.078px ">aks</tspan> Repor<tspan x="-142.674px " y="918.078px ">t</tspan>s, V<tspan x="-118.199px " y="918.078px ">o</tspan>l 2<tspan x="-97.287px " y="918.078px ">,</tspan> #4<tspan x="-75.06px " y="918.078px ">8</tspan></text>
        </g>
        <g transform="matrix(1.34501,0,0,1.34501,-11.8797,-358.649)">
            <g transform="matrix(0.304791,0,0,0.304791,21.8059,753.327)">
                <g transform="matrix(0.784717,0,0,0.793106,-64.1849,-549.287)">
                    <path d="M116.054,1919.86L205.862,1919.86L205.862,1831C175.913,1860.76 146.079,1890.14 116.054,1919.86Z" style="fill:rgb(42,161,183);"/>
                </g>
                <g transform="matrix(0.774384,0,0,0.781381,-62.8377,-529.87)">
                    <path d="M115.862,1833.63L115.862,1921L159.944,1877.43L115.862,1833.63Z" style="fill:rgb(243,80,5);"/>
                </g>
            </g>
            <g transform="matrix(1,0,0,1,-69.3695,114.318)">
                <text x="131.565px" y="935.442px" style="font-family:'Montserrat-Medium', 'Montserrat';font-weight:500;font-size:30px;">MAKED<tspan x="248.325px 269.235px 285.795px " y="935.442px 935.442px 935.442px ">ATA</tspan>SHINE<tspan x="404.805px 411.015px 432.255px " y="935.442px 935.442px 935.442px ">.CO</tspan>M</text>
            </g>
        </g>
    </g>
    <g transform="matrix(1,0,0,1,422.083,31.8234)">
        <text x="-254.083px" y="56.625px" style="font-family:'Montserrat-Medium', 'Montserrat';font-weight:500;font-size:64px;">Median Anual Spen<tspan x="380.221px " y="56.625px ">d</tspan>in<tspan x="485.501px " y="56.625px ">g</tspan>s* on</text>
        <text x="-164.995px" y="120.625px" style="font-family:'Montserrat-Medium', 'Montserrat';font-weight:500;font-size:64px;">C<tspan x="-120.131px " y="120.625px ">e</tspan>nt<tspan x="-12.035px 27.133px 52.797px 77.309px 120.637px " y="120.625px 120.625px 120.625px 120.625px 120.625px ">er-ba</tspan>sed Childcar<tspan x="560.509px " y="120.625px ">e</tspan></text>
        <text x="-11.395px" y="184.625px" style="font-family:'Montserrat-Medium', 'Montserrat';font-weight:500;font-size:64px;">b<tspan x="31.293px " y="184.625px ">y</tspan> Child&apos;s A<tspan x="362.749px " y="184.625px ">g</tspan>e</text>
    </g>
    <g transform="matrix(1.26542,0,0,0.722284,21.6086,51.1143)">
        <rect x="127" y="327" width="744" height="188" style="fill:rgb(250,177,12);fill-opacity:0.6;"/>
    </g>
    <g transform="matrix(1.33478,0,0,0.722284,12.8005,232.203)">
        <rect x="127" y="327" width="744" height="188" style="fill:rgb(250,177,12);fill-opacity:0.701961;"/>
    </g>
    <g transform="matrix(0.952716,0,0,0.722284,61.3222,413.292)">
        <rect x="127" y="327" width="744" height="188" style="fill:rgb(250,177,12);fill-opacity:0.8;"/>
    </g>
    <g transform="matrix(0.917431,0,0,0.722284,65.8035,594.381)">
        <rect x="127" y="327" width="744" height="188" style="fill:rgb(250,177,12);fill-opacity:0.901961;"/>
    </g>
    <g transform="matrix(0.790889,0,0,0.722284,81.8743,775.325)">
        <rect x="127" y="327" width="744" height="188" style="fill:rgb(250,177,12);"/>
    </g>
    <g transform="matrix(1,0,0,1,41.9929,24.4602)">
        <text x="61.604px" y="355.936px" style="font-family:'Montserrat-SemiBold', 'Montserrat';font-weight:600;font-size:72px;">0</text>
    </g>
    <g transform="matrix(1,0,0,1,20.7956,46.4047)">
        <text x="95.829px" y="515.08px" style="font-family:'Montserrat-SemiBold', 'Montserrat';font-weight:600;font-size:72px;">1</text>
    </g>
    <g transform="matrix(1,0,0,1,14.7227,47.0159)">
        <text x="92.406px" y="693.048px" style="font-family:'Montserrat-SemiBold', 'Montserrat';font-weight:600;font-size:72px;">2</text>
    </g>
    <g transform="matrix(1,0,0,1,15.2901,42.663)">
        <text x="92.406px" y="877.861px" style="font-family:'Montserrat-SemiBold', 'Montserrat';font-weight:600;font-size:72px;">3</text>
    </g>
    <g transform="matrix(1,0,0,1,3.30182,61.4162)">
        <text x="99.251px" y="1040.43px" style="font-family:'Montserrat-SemiBold', 'Montserrat';font-weight:600;font-size:72px;">4</text>
    </g>
    <g transform="matrix(1,0,0,1,-796.523,-463.284)">
        <text x="1024.67px" y="839.888px" style="font-family:'Montserrat-SemiBold', 'Montserrat';font-weight:600;font-size:64px;">$<tspan x="1064.28px 1088.67px 1130.97px 1146.27px " y="839.888px 839.888px 839.888px 839.888px ">10,4</tspan>00</text>
    </g>
    <g transform="matrix(1,0,0,1,-796.523,-282.195)">
        <text x="1024.67px" y="839.888px" style="font-family:'Montserrat-SemiBold', 'Montserrat';font-weight:600;font-size:64px;">$<tspan x="1064.28px 1088.67px 1130.97px 1146.59px 1186.39px " y="839.888px 839.888px 839.888px 839.888px 839.888px ">10,97</tspan>2</text>
    </g>
    <g transform="matrix(1,0,0,1,-796.523,-101.106)">
        <text x="1024.67px" y="839.888px" style="font-family:'Montserrat-SemiBold', 'Montserrat';font-weight:600;font-size:64px;">$<tspan x="1064.28px 1100px 1116.25px 1157.98px 1195.04px " y="839.888px 839.888px 839.888px 839.888px 839.888px ">7,826</tspan></text>
    </g>
    <g transform="matrix(1,0,0,1,-796.523,79.983)">
        <text x="1024.67px" y="839.888px" style="font-family:'Montserrat-SemiBold', 'Montserrat';font-weight:600;font-size:64px;">$<tspan x="1064.28px 1100px " y="839.888px 839.888px ">7,</tspan>540</text>
    </g>
    <g transform="matrix(1,0,0,1,-796.523,261.072)">
        <text x="1024.67px" y="839.888px" style="font-family:'Montserrat-SemiBold', 'Montserrat';font-weight:600;font-size:64px;">$6<tspan x="1105.69px " y="839.888px ">,</tspan>500</text>
    </g>
    <g transform="matrix(1,0,0,1,101.668,-14.5898)">
        <text x="1004.1px" y="1158.27px" style="font-family:'Montserrat-SemiBold', 'Montserrat';font-weight:600;font-size:24px;">* USA<tspan x="1073.51px " y="1158.27px ">,</tspan> 20<tspan x="1115.92px " y="1158.27px ">1</tspan>5</text>
    </g>
</svg>
